0
SECTION
2
HEADER
9
$ACADVER
1
AC1009
9
$INSUNITS
70
4
0
ENDSEC
0
SECTION
2
TABLES
0
TABLE
2
STYLE
70
1
0
STYLE
2
STANDARD
70
0
40
0
41
1
50
0
71
0
42
2.5
3
txt
4

0
ENDTAB
0
TABLE
2
LAYER
70
3
0
LAYER
2
SHEETS
70
0
62
5
6
CONTINUOUS
0
LAYER
2
PARTS
70
0
62
7
6
CONTINUOUS
0
LAYER
2
LABELS
70
0
62
3
6
CONTINUOUS
0
ENDTAB
0
ENDSEC
0
SECTION
2
ENTITIES
0
LINE
8
SHEETS
10
0
20
-2070
30
0
11
2800
21
-2070
31
0
0
LINE
8
SHEETS
10
2800
20
-2070
30
0
11
2800
21
0
31
0
0
LINE
8
SHEETS
10
2800
20
0
30
0
11
0
21
0
31
0
0
LINE
8
SHEETS
10
0
20
0
30
0
11
0
21
-2070
31
0
0
TEXT
8
LABELS
10
0
20
60
30
0
40
90
1
SHEET 1  2800x2070
7
STANDARD
0
LINE
8
PARTS
10
0
20
-720
30
0
11
2400
21
-720
31
0
0
LINE
8
PARTS
10
2400
20
-720
30
0
11
2400
21
0
31
0
0
LINE
8
PARTS
10
2400
20
0
30
0
11
0
21
0
31
0
0
LINE
8
PARTS
10
0
20
0
30
0
11
0
21
-720
31
0
0
TEXT
8
LABELS
10
24
20
-88
30
0
40
60
1
side-38
7
STANDARD
0
TEXT
8
LABELS
10
24
20
-160
30
0
40
60
1
2400x720
7
STANDARD
0
LINE
8
PARTS
10
0
20
-1283.2
30
0
11
2396
21
-1283.2
31
0
0
LINE
8
PARTS
10
2396
20
-1283.2
30
0
11
2396
21
-723.2
31
0
0
LINE
8
PARTS
10
2396
20
-723.2
30
0
11
0
21
-723.2
31
0
0
LINE
8
PARTS
10
0
20
-723.2
30
0
11
0
21
-1283.2
31
0
0
TEXT
8
LABELS
10
24
20
-811.2
30
0
40
60
1
plinth-2
7
STANDARD
0
TEXT
8
LABELS
10
24
20
-883.2
30
0
40
60
1
2396x560
7
STANDARD
0
LINE
8
PARTS
10
0
20
-1846.4
30
0
11
2396
21
-1846.4
31
0
0
LINE
8
PARTS
10
2396
20
-1846.4
30
0
11
2396
21
-1286.4
31
0
0
LINE
8
PARTS
10
2396
20
-1286.4
30
0
11
0
21
-1286.4
31
0
0
LINE
8
PARTS
10
0
20
-1286.4
30
0
11
0
21
-1846.4
31
0
0
TEXT
8
LABELS
10
24
20
-1374.4
30
0
40
60
1
plinth-2
7
STANDARD
0
TEXT
8
LABELS
10
24
20
-1446.4
30
0
40
60
1
2396x560
7
STANDARD
0
LINE
8
PARTS
10
2403.2
20
-597
30
0
11
2750.2
21
-597
31
0
0
LINE
8
PARTS
10
2750.2
20
-597
30
0
11
2750.2
21
0
31
0
0
LINE
8
PARTS
10
2750.2
20
0
30
0
11
2403.2
21
0
31
0
0
LINE
8
PARTS
10
2403.2
20
0
30
0
11
2403.2
21
-597
31
0
0
TEXT
8
LABELS
10
2427.2
20
-88
30
0
40
60
1
front-31
7
STANDARD
0
TEXT
8
LABELS
10
2427.2
20
-160
30
0
40
60
1
347x597
7
STANDARD
0
LINE
8
PARTS
10
2399.2
20
-1883.4
30
0
11
2746.2
21
-1883.4
31
0
0
LINE
8
PARTS
10
2746.2
20
-1883.4
30
0
11
2746.2
21
-1286.4
31
0
0
LINE
8
PARTS
10
2746.2
20
-1286.4
30
0
11
2399.2
21
-1286.4
31
0
0
LINE
8
PARTS
10
2399.2
20
-1286.4
30
0
11
2399.2
21
-1883.4
31
0
0
TEXT
8
LABELS
10
2423.2
20
-1374.4
30
0
40
60
1
front-33
7
STANDARD
0
TEXT
8
LABELS
10
2423.2
20
-1446.4
30
0
40
60
1
347x597
7
STANDARD
0
LINE
8
PARTS
10
2399.2
20
-1283.2
30
0
11
2755.2
21
-1283.2
31
0
0
LINE
8
PARTS
10
2755.2
20
-1283.2
30
0
11
2755.2
21
-723.2
31
0
0
LINE
8
PARTS
10
2755.2
20
-723.2
30
0
11
2399.2
21
-723.2
31
0
0
LINE
8
PARTS
10
2399.2
20
-723.2
30
0
11
2399.2
21
-1283.2
31
0
0
TEXT
8
LABELS
10
2423.2
20
-811.2
30
0
40
60
1
side-7
7
STANDARD
0
TEXT
8
LABELS
10
2423.2
20
-883.2
30
0
40
60
1
356x560
7
STANDARD
0
LINE
8
PARTS
10
0
20
-1986.6000000000001
30
0
11
897
21
-1986.6000000000001
31
0
0
LINE
8
PARTS
10
897
20
-1986.6000000000001
30
0
11
897
21
-1849.6000000000001
31
0
0
LINE
8
PARTS
10
897
20
-1849.6000000000001
30
0
11
0
21
-1849.6000000000001
31
0
0
LINE
8
PARTS
10
0
20
-1849.6000000000001
30
0
11
0
21
-1986.6000000000001
31
0
0
TEXT
8
LABELS
10
24
20
-1916.1000000000001
30
0
40
38.5
1
front-9*
7
STANDARD
0
TEXT
8
LABELS
10
24
20
-1966.6000000000001
30
0
40
38.5
1
137x897
7
STANDARD
0
LINE
8
PARTS
10
900.2
20
-1949.6000000000001
30
0
11
1759.2
21
-1949.6000000000001
31
0
0
LINE
8
PARTS
10
1759.2
20
-1949.6000000000001
30
0
11
1759.2
21
-1849.6000000000001
31
0
0
LINE
8
PARTS
10
1759.2
20
-1849.6000000000001
30
0
11
900.2
21
-1849.6000000000001
31
0
0
LINE
8
PARTS
10
900.2
20
-1849.6000000000001
30
0
11
900.2
21
-1949.6000000000001
31
0
0
TEXT
8
LABELS
10
924.2
20
-1897.6000000000001
30
0
40
20
1
drawer-back-13
7
STANDARD
0
TEXT
8
LABELS
10
924.2
20
-1929.6000000000001
30
0
40
20
1
859x100
7
STANDARD
0
LINE
8
PARTS
10
900.2
20
-2052.8
30
0
11
1759.2
21
-2052.8
31
0
0
LINE
8
PARTS
10
1759.2
20
-2052.8
30
0
11
1759.2
21
-1952.8000000000002
31
0
0
LINE
8
PARTS
10
1759.2
20
-1952.8000000000002
30
0
11
900.2
21
-1952.8000000000002
31
0
0
LINE
8
PARTS
10
900.2
20
-1952.8000000000002
30
0
11
900.2
21
-2052.8
31
0
0
TEXT
8
LABELS
10
924.2
20
-2000.8000000000002
30
0
40
20
1
drawer-back-18
7
STANDARD
0
TEXT
8
LABELS
10
924.2
20
-2032.8000000000002
30
0
40
20
1
859x100
7
STANDARD
0
LINE
8
PARTS
10
1762.4
20
-1986.6000000000001
30
0
11
2359.4
21
-1986.6000000000001
31
0
0
LINE
8
PARTS
10
2359.4
20
-1986.6000000000001
30
0
11
2359.4
21
-1849.6000000000001
31
0
0
LINE
8
PARTS
10
2359.4
20
-1849.6000000000001
30
0
11
1762.4
21
-1849.6000000000001
31
0
0
LINE
8
PARTS
10
1762.4
20
-1849.6000000000001
30
0
11
1762.4
21
-1986.6000000000001
31
0
0
TEXT
8
LABELS
10
1786.4
20
-1916.1000000000001
30
0
40
38.5
1
front-20*
7
STANDARD
0
TEXT
8
LABELS
10
1786.4
20
-1966.6000000000001
30
0
40
38.5
1
137x597
7
STANDARD
0
LINE
8
SHEETS
10
3100
20
-2070
30
0
11
5900
21
-2070
31
0
0
LINE
8
SHEETS
10
5900
20
-2070
30
0
11
5900
21
0
31
0
0
LINE
8
SHEETS
10
5900
20
0
30
0
11
3100
21
0
31
0
0
LINE
8
SHEETS
10
3100
20
0
30
0
11
3100
21
-2070
31
0
0
TEXT
8
LABELS
10
3100
20
60
30
0
40
90
1
SHEET 2  2800x2070
7
STANDARD
0
LINE
8
PARTS
10
3100
20
-560
30
0
11
5481
21
-560
31
0
0
LINE
8
PARTS
10
5481
20
-560
30
0
11
5481
21
0
31
0
0
LINE
8
PARTS
10
5481
20
0
30
0
11
3100
21
0
31
0
0
LINE
8
PARTS
10
3100
20
0
30
0
11
3100
21
-560
31
0
0
TEXT
8
LABELS
10
3124
20
-88
30
0
40
60
1
bottom-1
7
STANDARD
0
TEXT
8
LABELS
10
3124
20
-160
30
0
40
60
1
2381x560
7
STANDARD
0
LINE
8
PARTS
10
3100
20
-1123.2
30
0
11
5481
21
-1123.2
31
0
0
LINE
8
PARTS
10
5481
20
-1123.2
30
0
11
5481
21
-563.2
31
0
0
LINE
8
PARTS
10
5481
20
-563.2
30
0
11
3100
21
-563.2
31
0
0
LINE
8
PARTS
10
3100
20
-563.2
30
0
11
3100
21
-1123.2
31
0
0
TEXT
8
LABELS
10
3124
20
-651.2
30
0
40
60
1
bottom-1
7
STANDARD
0
TEXT
8
LABELS
10
3124
20
-723.2
30
0
40
60
1
2381x560
7
STANDARD
0
LINE
8
PARTS
10
3100
20
-1686.4
30
0
11
5206
21
-1686.4
31
0
0
LINE
8
PARTS
10
5206
20
-1686.4
30
0
11
5206
21
-1126.4
31
0
0
LINE
8
PARTS
10
5206
20
-1126.4
30
0
11
3100
21
-1126.4
31
0
0
LINE
8
PARTS
10
3100
20
-1126.4
30
0
11
3100
21
-1686.4
31
0
0
TEXT
8
LABELS
10
3124
20
-1214.4
30
0
40
60
1
side-6
7
STANDARD
0
TEXT
8
LABELS
10
3124
20
-1286.4
30
0
40
60
1
2106x560
7
STANDARD
0
LINE
8
PARTS
10
3100
20
-1989.6000000000001
30
0
11
5205
21
-1989.6000000000001
31
0
0
LINE
8
PARTS
10
5205
20
-1989.6000000000001
30
0
11
5205
21
-1689.6000000000001
31
0
0
LINE
8
PARTS
10
5205
20
-1689.6000000000001
30
0
11
3100
21
-1689.6000000000001
31
0
0
LINE
8
PARTS
10
3100
20
-1689.6000000000001
30
0
11
3100
21
-1989.6000000000001
31
0
0
TEXT
8
LABELS
10
3124
20
-1777.6000000000001
30
0
40
60
1
side-4
7
STANDARD
0
TEXT
8
LABELS
10
3124
20
-1849.6000000000001
30
0
40
60
1
2105x300
7
STANDARD
0
LINE
8
PARTS
10
5209.2
20
-2031.4
30
0
11
5809.2
21
-2031.4
31
0
0
LINE
8
PARTS
10
5809.2
20
-2031.4
30
0
11
5809.2
21
-1126.4
31
0
0
LINE
8
PARTS
10
5809.2
20
-1126.4
30
0
11
5209.2
21
-1126.4
31
0
0
LINE
8
PARTS
10
5209.2
20
-1126.4
30
0
11
5209.2
21
-2031.4
31
0
0
TEXT
8
LABELS
10
5233.2
20
-1214.4
30
0
40
60
1
worktop-8*
7
STANDARD
0
TEXT
8
LABELS
10
5233.2
20
-1286.4
30
0
40
60
1
905x600
7
STANDARD
0
LINE
8
PARTS
10
5484.2
20
-300
30
0
11
5839.2
21
-300
31
0
0
LINE
8
PARTS
10
5839.2
20
-300
30
0
11
5839.2
21
0
31
0
0
LINE
8
PARTS
10
5839.2
20
0
30
0
11
5484.2
21
0
31
0
0
LINE
8
PARTS
10
5484.2
20
0
30
0
11
5484.2
21
-300
31
0
0
TEXT
8
LABELS
10
5508.2
20
-88
30
0
40
60
1
side-5
7
STANDARD
0
TEXT
8
LABELS
10
5508.2
20
-160
30
0
40
60
1
355x300
7
STANDARD
0
LINE
8
PARTS
10
5484.2
20
-863.2
30
0
11
5824.2
21
-863.2
31
0
0
LINE
8
PARTS
10
5824.2
20
-863.2
30
0
11
5824.2
21
-563.2
31
0
0
LINE
8
PARTS
10
5824.2
20
-563.2
30
0
11
5484.2
21
-563.2
31
0
0
LINE
8
PARTS
10
5484.2
20
-563.2
30
0
11
5484.2
21
-863.2
31
0
0
TEXT
8
LABELS
10
5508.2
20
-651.2
30
0
40
60
1
side-9
7
STANDARD
0
TEXT
8
LABELS
10
5508.2
20
-723.2
30
0
40
60
1
340x300
7
STANDARD
0
LINE
8
SHEETS
10
6200
20
-2070
30
0
11
9000
21
-2070
31
0
0
LINE
8
SHEETS
10
9000
20
-2070
30
0
11
9000
21
0
31
0
0
LINE
8
SHEETS
10
9000
20
0
30
0
11
6200
21
0
31
0
0
LINE
8
SHEETS
10
6200
20
0
30
0
11
6200
21
-2070
31
0
0
TEXT
8
LABELS
10
6200
20
60
30
0
40
90
1
SHEET 3  2800x2070
7
STANDARD
0
LINE
8
PARTS
10
6200
20
-560
30
0
11
8297
21
-560
31
0
0
LINE
8
PARTS
10
8297
20
-560
30
0
11
8297
21
0
31
0
0
LINE
8
PARTS
10
8297
20
0
30
0
11
6200
21
0
31
0
0
LINE
8
PARTS
10
6200
20
0
30
0
11
6200
21
-560
31
0
0
TEXT
8
LABELS
10
6224
20
-88
30
0
40
60
1
filler-2
7
STANDARD
0
TEXT
8
LABELS
10
6224
20
-160
30
0
40
60
1
2097x560
7
STANDARD
0
LINE
8
PARTS
10
6200
20
-1123.2
30
0
11
7996
21
-1123.2
31
0
0
LINE
8
PARTS
10
7996
20
-1123.2
30
0
11
7996
21
-563.2
31
0
0
LINE
8
PARTS
10
7996
20
-563.2
30
0
11
6200
21
-563.2
31
0
0
LINE
8
PARTS
10
6200
20
-563.2
30
0
11
6200
21
-1123.2
31
0
0
TEXT
8
LABELS
10
6224
20
-651.2
30
0
40
60
1
plinth-3
7
STANDARD
0
TEXT
8
LABELS
10
6224
20
-723.2
30
0
40
60
1
1796x560
7
STANDARD
0
LINE
8
PARTS
10
6200
20
-1686.4
30
0
11
7981
21
-1686.4
31
0
0
LINE
8
PARTS
10
7981
20
-1686.4
30
0
11
7981
21
-1126.4
31
0
0
LINE
8
PARTS
10
7981
20
-1126.4
30
0
11
6200
21
-1126.4
31
0
0
LINE
8
PARTS
10
6200
20
-1126.4
30
0
11
6200
21
-1686.4
31
0
0
TEXT
8
LABELS
10
6224
20
-1214.4
30
0
40
60
1
bottom-1
7
STANDARD
0
TEXT
8
LABELS
10
6224
20
-1286.4
30
0
40
60
1
1781x560
7
STANDARD
0
LINE
8
PARTS
10
7999.2
20
-2068.2
30
0
11
8599.2
21
-2068.2
31
0
0
LINE
8
PARTS
10
8599.2
20
-2068.2
30
0
11
8599.2
21
-563.1999999999998
31
0
0
LINE
8
PARTS
10
8599.2
20
-563.1999999999998
30
0
11
7999.2
21
-563.1999999999998
31
0
0
LINE
8
PARTS
10
7999.2
20
-563.1999999999998
30
0
11
7999.2
21
-2068.2
31
0
0
TEXT
8
LABELS
10
8023.2
20
-651.2
30
0
40
60
1
worktop-7*
7
STANDARD
0
TEXT
8
LABELS
10
8023.2
20
-723.2
30
0
40
60
1
1505x600
7
STANDARD
0
LINE
8
PARTS
10
6200
20
-1989.6000000000001
30
0
11
7981
21
-1989.6000000000001
31
0
0
LINE
8
PARTS
10
7981
20
-1989.6000000000001
30
0
11
7981
21
-1689.6000000000001
31
0
0
LINE
8
PARTS
10
7981
20
-1689.6000000000001
30
0
11
6200
21
-1689.6000000000001
31
0
0
LINE
8
PARTS
10
6200
20
-1689.6000000000001
30
0
11
6200
21
-1989.6000000000001
31
0
0
TEXT
8
LABELS
10
6224
20
-1777.6000000000001
30
0
40
60
1
top-15
7
STANDARD
0
TEXT
8
LABELS
10
6224
20
-1849.6000000000001
30
0
40
60
1
1781x300
7
STANDARD
0
LINE
8
PARTS
10
8300.2
20
-560
30
0
11
8882.2
21
-560
31
0
0
LINE
8
PARTS
10
8882.2
20
-560
30
0
11
8882.2
21
0
31
0
0
LINE
8
PARTS
10
8882.2
20
0
30
0
11
8300.2
21
0
31
0
0
LINE
8
PARTS
10
8300.2
20
0
30
0
11
8300.2
21
-560
31
0
0
TEXT
8
LABELS
10
8324.2
20
-88
30
0
40
60
1
top-12
7
STANDARD
0
TEXT
8
LABELS
10
8324.2
20
-160
30
0
40
60
1
582x560
7
STANDARD
0
LINE
8
PARTS
10
8602.4
20
-1447.2
30
0
11
8930.4
21
-1447.2
31
0
0
LINE
8
PARTS
10
8930.4
20
-1447.2
30
0
11
8930.4
21
-563.2
31
0
0
LINE
8
PARTS
10
8930.4
20
-563.2
30
0
11
8602.4
21
-563.2
31
0
0
LINE
8
PARTS
10
8602.4
20
-563.2
30
0
11
8602.4
21
-1447.2
31
0
0
TEXT
8
LABELS
10
8626.4
20
-649.2645161290322
30
0
40
58.064516129032256
1
shelf-9*
7
STANDARD
0
TEXT
8
LABELS
10
8626.4
20
-719.3290322580646
30
0
40
58.064516129032256
1
884x328
7
STANDARD
0
LINE
8
PARTS
10
8602.4
20
-2047.4
30
0
11
8949.4
21
-2047.4
31
0
0
LINE
8
PARTS
10
8949.4
20
-2047.4
30
0
11
8949.4
21
-1450.4
31
0
0
LINE
8
PARTS
10
8949.4
20
-1450.4
30
0
11
8602.4
21
-1450.4
31
0
0
LINE
8
PARTS
10
8602.4
20
-1450.4
30
0
11
8602.4
21
-2047.4
31
0
0
TEXT
8
LABELS
10
8626.4
20
-1538.4
30
0
40
60
1
front-35
7
STANDARD
0
TEXT
8
LABELS
10
8626.4
20
-1610.4
30
0
40
60
1
347x597
7
STANDARD
0
LINE
8
PARTS
10
8885.4
20
-559
30
0
11
8985.4
21
-559
31
0
0
LINE
8
PARTS
10
8985.4
20
-559
30
0
11
8985.4
21
0
31
0
0
LINE
8
PARTS
10
8985.4
20
0
30
0
11
8885.4
21
0
31
0
0
LINE
8
PARTS
10
8885.4
20
0
30
0
11
8885.4
21
-559
31
0
0
TEXT
8
LABELS
10
8909.4
20
-48
30
0
40
20
1
drawer-back-19*
7
STANDARD
0
TEXT
8
LABELS
10
8909.4
20
-80
30
0
40
20
1
559x100
7
STANDARD
0
LINE
8
SHEETS
10
9300
20
-2070
30
0
11
12100
21
-2070
31
0
0
LINE
8
SHEETS
10
12100
20
-2070
30
0
11
12100
21
0
31
0
0
LINE
8
SHEETS
10
12100
20
0
30
0
11
9300
21
0
31
0
0
LINE
8
SHEETS
10
9300
20
0
30
0
11
9300
21
-2070
31
0
0
TEXT
8
LABELS
10
9300
20
60
30
0
40
90
1
SHEET 4  2800x2070
7
STANDARD
0
LINE
8
PARTS
10
9300
20
-600
30
0
11
10805
21
-600
31
0
0
LINE
8
PARTS
10
10805
20
-600
30
0
11
10805
21
0
31
0
0
LINE
8
PARTS
10
10805
20
0
30
0
11
9300
21
0
31
0
0
LINE
8
PARTS
10
9300
20
0
30
0
11
9300
21
-600
31
0
0
TEXT
8
LABELS
10
9324
20
-88
30
0
40
60
1
worktop-7
7
STANDARD
0
TEXT
8
LABELS
10
9324
20
-160
30
0
40
60
1
1505x600
7
STANDARD
0
LINE
8
PARTS
10
9300
20
-1200.2
30
0
11
10597
21
-1200.2
31
0
0
LINE
8
PARTS
10
10597
20
-1200.2
30
0
11
10597
21
-603.2
31
0
0
LINE
8
PARTS
10
10597
20
-603.2
30
0
11
9300
21
-603.2
31
0
0
LINE
8
PARTS
10
9300
20
-603.2
30
0
11
9300
21
-1200.2
31
0
0
TEXT
8
LABELS
10
9324
20
-691.2
30
0
40
60
1
front-26
7
STANDARD
0
TEXT
8
LABELS
10
9324
20
-763.2
30
0
40
60
1
1297x597
7
STANDARD
0
LINE
8
PARTS
10
9300
20
-1923.4
30
0
11
10300
21
-1923.4
31
0
0
LINE
8
PARTS
10
10300
20
-1923.4
30
0
11
10300
21
-1203.4
31
0
0
LINE
8
PARTS
10
10300
20
-1203.4
30
0
11
9300
21
-1203.4
31
0
0
LINE
8
PARTS
10
9300
20
-1203.4
30
0
11
9300
21
-1923.4
31
0
0
TEXT
8
LABELS
10
9324
20
-1291.4
30
0
40
60
1
side-39*
7
STANDARD
0
TEXT
8
LABELS
10
9324
20
-1363.4
30
0
40
60
1
720x1000
7
STANDARD
0
LINE
8
PARTS
10
10600.2
20
-1603.2
30
0
11
11320.2
21
-1603.2
31
0
0
LINE
8
PARTS
10
11320.2
20
-1603.2
30
0
11
11320.2
21
-603.2
31
0
0
LINE
8
PARTS
10
11320.2
20
-603.2
30
0
11
10600.2
21
-603.2
31
0
0
LINE
8
PARTS
10
10600.2
20
-603.2
30
0
11
10600.2
21
-1603.2
31
0
0
TEXT
8
LABELS
10
10624.2
20
-691.2
30
0
40
60
1
side-40
7
STANDARD
0
TEXT
8
LABELS
10
10624.2
20
-763.2
30
0
40
60
1
720x1000
7
STANDARD
0
LINE
8
PARTS
10
10808.2
20
-600
30
0
11
11713.2
21
-600
31
0
0
LINE
8
PARTS
10
11713.2
20
-600
30
0
11
11713.2
21
0
31
0
0
LINE
8
PARTS
10
11713.2
20
0
30
0
11
10808.2
21
0
31
0
0
LINE
8
PARTS
10
10808.2
20
0
30
0
11
10808.2
21
-600
31
0
0
TEXT
8
LABELS
10
10832.2
20
-88
30
0
40
60
1
worktop-8
7
STANDARD
0
TEXT
8
LABELS
10
10832.2
20
-160
30
0
40
60
1
905x600
7
STANDARD
0
LINE
8
PARTS
10
11323.4
20
-1163.2
30
0
11
12040.4
21
-1163.2
31
0
0
LINE
8
PARTS
10
12040.4
20
-1163.2
30
0
11
12040.4
21
-603.2
31
0
0
LINE
8
PARTS
10
12040.4
20
-603.2
30
0
11
11323.4
21
-603.2
31
0
0
LINE
8
PARTS
10
11323.4
20
-603.2
30
0
11
11323.4
21
-1163.2
31
0
0
TEXT
8
LABELS
10
11347.4
20
-691.2
30
0
40
60
1
side-3
7
STANDARD
0
TEXT
8
LABELS
10
11347.4
20
-763.2
30
0
40
60
1
717x560
7
STANDARD
0
LINE
8
PARTS
10
11323.4
20
-1726.4
30
0
11
12040.4
21
-1726.4
31
0
0
LINE
8
PARTS
10
12040.4
20
-1726.4
30
0
11
12040.4
21
-1166.4
31
0
0
LINE
8
PARTS
10
12040.4
20
-1166.4
30
0
11
11323.4
21
-1166.4
31
0
0
LINE
8
PARTS
10
11323.4
20
-1166.4
30
0
11
11323.4
21
-1726.4
31
0
0
TEXT
8
LABELS
10
11347.4
20
-1254.4
30
0
40
60
1
side-4
7
STANDARD
0
TEXT
8
LABELS
10
11347.4
20
-1326.4
30
0
40
60
1
717x560
7
STANDARD
0
LINE
8
PARTS
10
10600.2
20
-2053.4
30
0
11
11197.2
21
-2053.4
31
0
0
LINE
8
PARTS
10
11197.2
20
-2053.4
30
0
11
11197.2
21
-1606.4
31
0
0
LINE
8
PARTS
10
11197.2
20
-1606.4
30
0
11
10600.2
21
-1606.4
31
0
0
LINE
8
PARTS
10
10600.2
20
-1606.4
30
0
11
10600.2
21
-2053.4
31
0
0
TEXT
8
LABELS
10
10624.2
20
-1694.4
30
0
40
60
1
front-16*
7
STANDARD
0
TEXT
8
LABELS
10
10624.2
20
-1766.4
30
0
40
60
1
447x597
7
STANDARD
0
LINE
8
PARTS
10
11716.4
20
-577
30
0
11
12013.4
21
-577
31
0
0
LINE
8
PARTS
10
12013.4
20
-577
30
0
11
12013.4
21
0
31
0
0
LINE
8
PARTS
10
12013.4
20
0
30
0
11
11716.4
21
0
31
0
0
LINE
8
PARTS
10
11716.4
20
0
30
0
11
11716.4
21
-577
31
0
0
TEXT
8
LABELS
10
11740.4
20
-74.05734767025089
30
0
40
46.0573476702509
1
front-21*
7
STANDARD
0
TEXT
8
LABELS
10
11740.4
20
-132.11469534050178
30
0
40
46.0573476702509
1
577x297
7
STANDARD
0
LINE
8
PARTS
10
11323.4
20
-2026.6000000000001
30
0
11
11900.4
21
-2026.6000000000001
31
0
0
LINE
8
PARTS
10
11900.4
20
-2026.6000000000001
30
0
11
11900.4
21
-1729.6000000000001
31
0
0
LINE
8
PARTS
10
11900.4
20
-1729.6000000000001
30
0
11
11323.4
21
-1729.6000000000001
31
0
0
LINE
8
PARTS
10
11323.4
20
-1729.6000000000001
30
0
11
11323.4
21
-2026.6000000000001
31
0
0
TEXT
8
LABELS
10
11347.4
20
-1817.6000000000001
30
0
40
60
1
front-22
7
STANDARD
0
TEXT
8
LABELS
10
11347.4
20
-1889.6000000000001
30
0
40
60
1
577x297
7
STANDARD
0
LINE
8
PARTS
10
9300
20
-2026.6000000000001
30
0
11
10159
21
-2026.6000000000001
31
0
0
LINE
8
PARTS
10
10159
20
-2026.6000000000001
30
0
11
10159
21
-1926.6000000000001
31
0
0
LINE
8
PARTS
10
10159
20
-1926.6000000000001
30
0
11
9300
21
-1926.6000000000001
31
0
0
LINE
8
PARTS
10
9300
20
-1926.6000000000001
30
0
11
9300
21
-2026.6000000000001
31
0
0
TEXT
8
LABELS
10
9324
20
-1974.6000000000001
30
0
40
20
1
drawer-back-26
7
STANDARD
0
TEXT
8
LABELS
10
9324
20
-2006.6000000000001
30
0
40
20
1
859x100
7
STANDARD
0
LINE
8
PARTS
10
10303.2
20
-2062.4
30
0
11
10403.2
21
-2062.4
31
0
0
LINE
8
PARTS
10
10403.2
20
-2062.4
30
0
11
10403.2
21
-1203.4
31
0
0
LINE
8
PARTS
10
10403.2
20
-1203.4
30
0
11
10303.2
21
-1203.4
31
0
0
LINE
8
PARTS
10
10303.2
20
-1203.4
30
0
11
10303.2
21
-2062.4
31
0
0
TEXT
8
LABELS
10
10327.2
20
-1251.4
30
0
40
20
1
drawer-back-31*
7
STANDARD
0
TEXT
8
LABELS
10
10327.2
20
-1283.4
30
0
40
20
1
859x100
7
STANDARD
0
LINE
8
PARTS
10
10406.4
20
-2062.4
30
0
11
10506.4
21
-2062.4
31
0
0
LINE
8
PARTS
10
10506.4
20
-2062.4
30
0
11
10506.4
21
-1203.4
31
0
0
LINE
8
PARTS
10
10506.4
20
-1203.4
30
0
11
10406.4
21
-1203.4
31
0
0
LINE
8
PARTS
10
10406.4
20
-1203.4
30
0
11
10406.4
21
-2062.4
31
0
0
TEXT
8
LABELS
10
10430.4
20
-1251.4
30
0
40
20
1
drawer-back-36*
7
STANDARD
0
TEXT
8
LABELS
10
10430.4
20
-1283.4
30
0
40
20
1
859x100
7
STANDARD
0
LINE
8
SHEETS
10
12400
20
-2070
30
0
11
15200
21
-2070
31
0
0
LINE
8
SHEETS
10
15200
20
-2070
30
0
11
15200
21
0
31
0
0
LINE
8
SHEETS
10
15200
20
0
30
0
11
12400
21
0
31
0
0
LINE
8
SHEETS
10
12400
20
0
30
0
11
12400
21
-2070
31
0
0
TEXT
8
LABELS
10
12400
20
60
30
0
40
90
1
SHEET 5  2800x2070
7
STANDARD
0
LINE
8
PARTS
10
12400
20
-300
30
0
11
14490
21
-300
31
0
0
LINE
8
PARTS
10
14490
20
-300
30
0
11
14490
21
0
31
0
0
LINE
8
PARTS
10
14490
20
0
30
0
11
12400
21
0
31
0
0
LINE
8
PARTS
10
12400
20
0
30
0
11
12400
21
-300
31
0
0
TEXT
8
LABELS
10
12424
20
-88
30
0
40
60
1
side-8
7
STANDARD
0
TEXT
8
LABELS
10
12424
20
-160
30
0
40
60
1
2090x300
7
STANDARD
0
LINE
8
PARTS
10
12400
20
-603.2
30
0
11
14490
21
-603.2
31
0
0
LINE
8
PARTS
10
14490
20
-603.2
30
0
11
14490
21
-303.20000000000005
31
0
0
LINE
8
PARTS
10
14490
20
-303.20000000000005
30
0
11
12400
21
-303.20000000000005
31
0
0
LINE
8
PARTS
10
12400
20
-303.20000000000005
30
0
11
12400
21
-603.2
31
0
0
TEXT
8
LABELS
10
12424
20
-391.2
30
0
40
60
1
side-10
7
STANDARD
0
TEXT
8
LABELS
10
12424
20
-463.2
30
0
40
60
1
2090x300
7
STANDARD
0
LINE
8
PARTS
10
12400
20
-1166.4
30
0
11
13117
21
-1166.4
31
0
0
LINE
8
PARTS
10
13117
20
-1166.4
30
0
11
13117
21
-606.4000000000001
31
0
0
LINE
8
PARTS
10
13117
20
-606.4000000000001
30
0
11
12400
21
-606.4000000000001
31
0
0
LINE
8
PARTS
10
12400
20
-606.4000000000001
30
0
11
12400
21
-1166.4
31
0
0
TEXT
8
LABELS
10
12424
20
-694.4000000000001
30
0
40
60
1
side-3
7
STANDARD
0
TEXT
8
LABELS
10
12424
20
-766.4000000000001
30
0
40
60
1
717x560
7
STANDARD
0
LINE
8
PARTS
10
12400
20
-1729.6000000000001
30
0
11
13117
21
-1729.6000000000001
31
0
0
LINE
8
PARTS
10
13117
20
-1729.6000000000001
30
0
11
13117
21
-1169.6000000000001
31
0
0
LINE
8
PARTS
10
13117
20
-1169.6000000000001
30
0
11
12400
21
-1169.6000000000001
31
0
0
LINE
8
PARTS
10
12400
20
-1169.6000000000001
30
0
11
12400
21
-1729.6000000000001
31
0
0
TEXT
8
LABELS
10
12424
20
-1257.6000000000001
30
0
40
60
1
side-4
7
STANDARD
0
TEXT
8
LABELS
10
12424
20
-1329.6000000000001
30
0
40
60
1
717x560
7
STANDARD
0
LINE
8
PARTS
10
13120.2
20
-1166.4
30
0
11
13822.2
21
-1166.4
31
0
0
LINE
8
PARTS
10
13822.2
20
-1166.4
30
0
11
13822.2
21
-606.4000000000001
31
0
0
LINE
8
PARTS
10
13822.2
20
-606.4000000000001
30
0
11
13120.2
21
-606.4000000000001
31
0
0
LINE
8
PARTS
10
13120.2
20
-606.4000000000001
30
0
11
13120.2
21
-1166.4
31
0
0
TEXT
8
LABELS
10
13144.2
20
-694.4000000000001
30
0
40
60
1
side-5
7
STANDARD
0
TEXT
8
LABELS
10
13144.2
20
-766.4000000000001
30
0
40
60
1
702x560
7
STANDARD
0
LINE
8
PARTS
10
13120.2
20
-1729.6000000000001
30
0
11
13822.2
21
-1729.6000000000001
31
0
0
LINE
8
PARTS
10
13822.2
20
-1729.6000000000001
30
0
11
13822.2
21
-1169.6000000000001
31
0
0
LINE
8
PARTS
10
13822.2
20
-1169.6000000000001
30
0
11
13120.2
21
-1169.6000000000001
31
0
0
LINE
8
PARTS
10
13120.2
20
-1169.6000000000001
30
0
11
13120.2
21
-1729.6000000000001
31
0
0
TEXT
8
LABELS
10
13144.2
20
-1257.6000000000001
30
0
40
60
1
side-6
7
STANDARD
0
TEXT
8
LABELS
10
13144.2
20
-1329.6000000000001
30
0
40
60
1
702x560
7
STANDARD
0
LINE
8
PARTS
10
13825.4
20
-1166.4
30
0
11
14527.4
21
-1166.4
31
0
0
LINE
8
PARTS
10
14527.4
20
-1166.4
30
0
11
14527.4
21
-606.4000000000001
31
0
0
LINE
8
PARTS
10
14527.4
20
-606.4000000000001
30
0
11
13825.4
21
-606.4000000000001
31
0
0
LINE
8
PARTS
10
13825.4
20
-606.4000000000001
30
0
11
13825.4
21
-1166.4
31
0
0
TEXT
8
LABELS
10
13849.4
20
-694.4000000000001
30
0
40
60
1
side-5
7
STANDARD
0
TEXT
8
LABELS
10
13849.4
20
-766.4000000000001
30
0
40
60
1
702x560
7
STANDARD
0
LINE
8
PARTS
10
13825.4
20
-1729.6000000000001
30
0
11
14527.4
21
-1729.6000000000001
31
0
0
LINE
8
PARTS
10
14527.4
20
-1729.6000000000001
30
0
11
14527.4
21
-1169.6000000000001
31
0
0
LINE
8
PARTS
10
14527.4
20
-1169.6000000000001
30
0
11
13825.4
21
-1169.6000000000001
31
0
0
LINE
8
PARTS
10
13825.4
20
-1169.6000000000001
30
0
11
13825.4
21
-1729.6000000000001
31
0
0
TEXT
8
LABELS
10
13849.4
20
-1257.6000000000001
30
0
40
60
1
side-6
7
STANDARD
0
TEXT
8
LABELS
10
13849.4
20
-1329.6000000000001
30
0
40
60
1
702x560
7
STANDARD
0
LINE
8
PARTS
10
14530.6
20
-1166.4
30
0
11
15112.6
21
-1166.4
31
0
0
LINE
8
PARTS
10
15112.6
20
-1166.4
30
0
11
15112.6
21
-606.4000000000001
31
0
0
LINE
8
PARTS
10
15112.6
20
-606.4000000000001
30
0
11
14530.6
21
-606.4000000000001
31
0
0
LINE
8
PARTS
10
14530.6
20
-606.4000000000001
30
0
11
14530.6
21
-1166.4
31
0
0
TEXT
8
LABELS
10
14554.6
20
-694.4000000000001
30
0
40
60
1
top-13
7
STANDARD
0
TEXT
8
LABELS
10
14554.6
20
-766.4000000000001
30
0
40
60
1
582x560
7
STANDARD
0
LINE
8
PARTS
10
14530.6
20
-1729.6000000000001
30
0
11
15112.6
21
-1729.6000000000001
31
0
0
LINE
8
PARTS
10
15112.6
20
-1729.6000000000001
30
0
11
15112.6
21
-1169.6000000000001
31
0
0
LINE
8
PARTS
10
15112.6
20
-1169.6000000000001
30
0
11
14530.6
21
-1169.6000000000001
31
0
0
LINE
8
PARTS
10
14530.6
20
-1169.6000000000001
30
0
11
14530.6
21
-1729.6000000000001
31
0
0
TEXT
8
LABELS
10
14554.6
20
-1257.6000000000001
30
0
40
60
1
top-14
7
STANDARD
0
TEXT
8
LABELS
10
14554.6
20
-1329.6000000000001
30
0
40
60
1
582x560
7
STANDARD
0
LINE
8
PARTS
10
14493.2
20
-300
30
0
11
14833.2
21
-300
31
0
0
LINE
8
PARTS
10
14833.2
20
-300
30
0
11
14833.2
21
0
31
0
0
LINE
8
PARTS
10
14833.2
20
0
30
0
11
14493.2
21
0
31
0
0
LINE
8
PARTS
10
14493.2
20
0
30
0
11
14493.2
21
-300
31
0
0
TEXT
8
LABELS
10
14517.2
20
-88
30
0
40
60
1
side-11
7
STANDARD
0
TEXT
8
LABELS
10
14517.2
20
-160
30
0
40
60
1
340x300
7
STANDARD
0
LINE
8
PARTS
10
14493.2
20
-403.2
30
0
11
15052.2
21
-403.2
31
0
0
LINE
8
PARTS
10
15052.2
20
-403.2
30
0
11
15052.2
21
-303.2
31
0
0
LINE
8
PARTS
10
15052.2
20
-303.2
30
0
11
14493.2
21
-303.2
31
0
0
LINE
8
PARTS
10
14493.2
20
-303.2
30
0
11
14493.2
21
-403.2
31
0
0
TEXT
8
LABELS
10
14517.2
20
-351.2
30
0
40
20
1
drawer-back-24
7
STANDARD
0
TEXT
8
LABELS
10
14517.2
20
-383.2
30
0
40
20
1
559x100
7
STANDARD
0
LINE
8
PARTS
10
14493.2
20
-506.4
30
0
11
14993.2
21
-506.4
31
0
0
LINE
8
PARTS
10
14993.2
20
-506.4
30
0
11
14993.2
21
-406.4
31
0
0
LINE
8
PARTS
10
14993.2
20
-406.4
30
0
11
14493.2
21
-406.4
31
0
0
LINE
8
PARTS
10
14493.2
20
-406.4
30
0
11
14493.2
21
-506.4
31
0
0
TEXT
8
LABELS
10
14517.2
20
-454.4
30
0
40
20
1
drawer-side-17
7
STANDARD
0
TEXT
8
LABELS
10
14517.2
20
-486.4
30
0
40
20
1
500x100
7
STANDARD
0
LINE
8
PARTS
10
14530.6
20
-1832.8000000000002
30
0
11
15030.6
21
-1832.8000000000002
31
0
0
LINE
8
PARTS
10
15030.6
20
-1832.8000000000002
30
0
11
15030.6
21
-1732.8000000000002
31
0
0
LINE
8
PARTS
10
15030.6
20
-1732.8000000000002
30
0
11
14530.6
21
-1732.8000000000002
31
0
0
LINE
8
PARTS
10
14530.6
20
-1732.8000000000002
30
0
11
14530.6
21
-1832.8000000000002
31
0
0
TEXT
8
LABELS
10
14554.6
20
-1780.8000000000002
30
0
40
20
1
drawer-side-18
7
STANDARD
0
TEXT
8
LABELS
10
14554.6
20
-1812.8000000000002
30
0
40
20
1
500x100
7
STANDARD
0
LINE
8
PARTS
10
14530.6
20
-1936.0000000000002
30
0
11
15030.6
21
-1936.0000000000002
31
0
0
LINE
8
PARTS
10
15030.6
20
-1936.0000000000002
30
0
11
15030.6
21
-1836.0000000000002
31
0
0
LINE
8
PARTS
10
15030.6
20
-1836.0000000000002
30
0
11
14530.6
21
-1836.0000000000002
31
0
0
LINE
8
PARTS
10
14530.6
20
-1836.0000000000002
30
0
11
14530.6
21
-1936.0000000000002
31
0
0
TEXT
8
LABELS
10
14554.6
20
-1884.0000000000002
30
0
40
20
1
drawer-side-22
7
STANDARD
0
TEXT
8
LABELS
10
14554.6
20
-1916.0000000000002
30
0
40
20
1
500x100
7
STANDARD
0
LINE
8
PARTS
10
14530.6
20
-2039.2000000000003
30
0
11
15030.6
21
-2039.2000000000003
31
0
0
LINE
8
PARTS
10
15030.6
20
-2039.2000000000003
30
0
11
15030.6
21
-1939.2000000000003
31
0
0
LINE
8
PARTS
10
15030.6
20
-1939.2000000000003
30
0
11
14530.6
21
-1939.2000000000003
31
0
0
LINE
8
PARTS
10
14530.6
20
-1939.2000000000003
30
0
11
14530.6
21
-2039.2000000000003
31
0
0
TEXT
8
LABELS
10
14554.6
20
-1987.2000000000003
30
0
40
20
1
drawer-side-23
7
STANDARD
0
TEXT
8
LABELS
10
14554.6
20
-2019.2000000000003
30
0
40
20
1
500x100
7
STANDARD
0
LINE
8
PARTS
10
13120.2
20
-1832.8000000000002
30
0
11
13620.2
21
-1832.8000000000002
31
0
0
LINE
8
PARTS
10
13620.2
20
-1832.8000000000002
30
0
11
13620.2
21
-1732.8000000000002
31
0
0
LINE
8
PARTS
10
13620.2
20
-1732.8000000000002
30
0
11
13120.2
21
-1732.8000000000002
31
0
0
LINE
8
PARTS
10
13120.2
20
-1732.8000000000002
30
0
11
13120.2
21
-1832.8000000000002
31
0
0
TEXT
8
LABELS
10
13144.2
20
-1780.8000000000002
30
0
40
20
1
drawer-side-11
7
STANDARD
0
TEXT
8
LABELS
10
13144.2
20
-1812.8000000000002
30
0
40
20
1
500x100
7
STANDARD
0
LINE
8
PARTS
10
13120.2
20
-1936.0000000000002
30
0
11
13620.2
21
-1936.0000000000002
31
0
0
LINE
8
PARTS
10
13620.2
20
-1936.0000000000002
30
0
11
13620.2
21
-1836.0000000000002
31
0
0
LINE
8
PARTS
10
13620.2
20
-1836.0000000000002
30
0
11
13120.2
21
-1836.0000000000002
31
0
0
LINE
8
PARTS
10
13120.2
20
-1836.0000000000002
30
0
11
13120.2
21
-1936.0000000000002
31
0
0
TEXT
8
LABELS
10
13144.2
20
-1884.0000000000002
30
0
40
20
1
drawer-side-12
7
STANDARD
0
TEXT
8
LABELS
10
13144.2
20
-1916.0000000000002
30
0
40
20
1
500x100
7
STANDARD
0
LINE
8
PARTS
10
13120.2
20
-2039.2000000000003
30
0
11
13620.2
21
-2039.2000000000003
31
0
0
LINE
8
PARTS
10
13620.2
20
-2039.2000000000003
30
0
11
13620.2
21
-1939.2000000000003
31
0
0
LINE
8
PARTS
10
13620.2
20
-1939.2000000000003
30
0
11
13120.2
21
-1939.2000000000003
31
0
0
LINE
8
PARTS
10
13120.2
20
-1939.2000000000003
30
0
11
13120.2
21
-2039.2000000000003
31
0
0
TEXT
8
LABELS
10
13144.2
20
-1987.2000000000003
30
0
40
20
1
drawer-side-16
7
STANDARD
0
TEXT
8
LABELS
10
13144.2
20
-2019.2000000000003
30
0
40
20
1
500x100
7
STANDARD
0
LINE
8
PARTS
10
13825.4
20
-1832.8000000000002
30
0
11
14325.4
21
-1832.8000000000002
31
0
0
LINE
8
PARTS
10
14325.4
20
-1832.8000000000002
30
0
11
14325.4
21
-1732.8000000000002
31
0
0
LINE
8
PARTS
10
14325.4
20
-1732.8000000000002
30
0
11
13825.4
21
-1732.8000000000002
31
0
0
LINE
8
PARTS
10
13825.4
20
-1732.8000000000002
30
0
11
13825.4
21
-1832.8000000000002
31
0
0
TEXT
8
LABELS
10
13849.4
20
-1780.8000000000002
30
0
40
20
1
drawer-side-17
7
STANDARD
0
TEXT
8
LABELS
10
13849.4
20
-1812.8000000000002
30
0
40
20
1
500x100
7
STANDARD
0
LINE
8
PARTS
10
13825.4
20
-1936.0000000000002
30
0
11
14325.4
21
-1936.0000000000002
31
0
0
LINE
8
PARTS
10
14325.4
20
-1936.0000000000002
30
0
11
14325.4
21
-1836.0000000000002
31
0
0
LINE
8
PARTS
10
14325.4
20
-1836.0000000000002
30
0
11
13825.4
21
-1836.0000000000002
31
0
0
LINE
8
PARTS
10
13825.4
20
-1836.0000000000002
30
0
11
13825.4
21
-1936.0000000000002
31
0
0
TEXT
8
LABELS
10
13849.4
20
-1884.0000000000002
30
0
40
20
1
drawer-side-24
7
STANDARD
0
TEXT
8
LABELS
10
13849.4
20
-1916.0000000000002
30
0
40
20
1
500x100
7
STANDARD
0
LINE
8
PARTS
10
13825.4
20
-2039.2000000000003
30
0
11
14325.4
21
-2039.2000000000003
31
0
0
LINE
8
PARTS
10
14325.4
20
-2039.2000000000003
30
0
11
14325.4
21
-1939.2000000000003
31
0
0
LINE
8
PARTS
10
14325.4
20
-1939.2000000000003
30
0
11
13825.4
21
-1939.2000000000003
31
0
0
LINE
8
PARTS
10
13825.4
20
-1939.2000000000003
30
0
11
13825.4
21
-2039.2000000000003
31
0
0
TEXT
8
LABELS
10
13849.4
20
-1987.2000000000003
30
0
40
20
1
drawer-side-25
7
STANDARD
0
TEXT
8
LABELS
10
13849.4
20
-2019.2000000000003
30
0
40
20
1
500x100
7
STANDARD
0
LINE
8
PARTS
10
12400
20
-1832.8000000000002
30
0
11
12900
21
-1832.8000000000002
31
0
0
LINE
8
PARTS
10
12900
20
-1832.8000000000002
30
0
11
12900
21
-1732.8000000000002
31
0
0
LINE
8
PARTS
10
12900
20
-1732.8000000000002
30
0
11
12400
21
-1732.8000000000002
31
0
0
LINE
8
PARTS
10
12400
20
-1732.8000000000002
30
0
11
12400
21
-1832.8000000000002
31
0
0
TEXT
8
LABELS
10
12424
20
-1780.8000000000002
30
0
40
20
1
drawer-side-29
7
STANDARD
0
TEXT
8
LABELS
10
12424
20
-1812.8000000000002
30
0
40
20
1
500x100
7
STANDARD
0
LINE
8
PARTS
10
12400
20
-1936.0000000000002
30
0
11
12900
21
-1936.0000000000002
31
0
0
LINE
8
PARTS
10
12900
20
-1936.0000000000002
30
0
11
12900
21
-1836.0000000000002
31
0
0
LINE
8
PARTS
10
12900
20
-1836.0000000000002
30
0
11
12400
21
-1836.0000000000002
31
0
0
LINE
8
PARTS
10
12400
20
-1836.0000000000002
30
0
11
12400
21
-1936.0000000000002
31
0
0
TEXT
8
LABELS
10
12424
20
-1884.0000000000002
30
0
40
20
1
drawer-side-30
7
STANDARD
0
TEXT
8
LABELS
10
12424
20
-1916.0000000000002
30
0
40
20
1
500x100
7
STANDARD
0
LINE
8
PARTS
10
12400
20
-2039.2000000000003
30
0
11
12900
21
-2039.2000000000003
31
0
0
LINE
8
PARTS
10
12900
20
-2039.2000000000003
30
0
11
12900
21
-1939.2000000000003
31
0
0
LINE
8
PARTS
10
12900
20
-1939.2000000000003
30
0
11
12400
21
-1939.2000000000003
31
0
0
LINE
8
PARTS
10
12400
20
-1939.2000000000003
30
0
11
12400
21
-2039.2000000000003
31
0
0
TEXT
8
LABELS
10
12424
20
-1987.2000000000003
30
0
40
20
1
drawer-side-34
7
STANDARD
0
TEXT
8
LABELS
10
12424
20
-2019.2000000000003
30
0
40
20
1
500x100
7
STANDARD
0
LINE
8
SHEETS
10
15500
20
-2070
30
0
11
18300
21
-2070
31
0
0
LINE
8
SHEETS
10
18300
20
-2070
30
0
11
18300
21
0
31
0
0
LINE
8
SHEETS
10
18300
20
0
30
0
11
15500
21
0
31
0
0
LINE
8
SHEETS
10
15500
20
0
30
0
11
15500
21
-2070
31
0
0
TEXT
8
LABELS
10
15500
20
60
30
0
40
90
1
SHEET 6  2800x2070
7
STANDARD
0
LINE
8
PARTS
10
15500
20
-538
30
0
11
16084
21
-538
31
0
0
LINE
8
PARTS
10
16084
20
-538
30
0
11
16084
21
0
31
0
0
LINE
8
PARTS
10
16084
20
0
30
0
11
15500
21
0
31
0
0
LINE
8
PARTS
10
15500
20
0
30
0
11
15500
21
-538
31
0
0
TEXT
8
LABELS
10
15524
20
-88
30
0
40
60
1
shelf-27
7
STANDARD
0
TEXT
8
LABELS
10
15524
20
-160
30
0
40
60
1
584x538
7
STANDARD
0
LINE
8
PARTS
10
15500
20
-1079.2
30
0
11
16084
21
-1079.2
31
0
0
LINE
8
PARTS
10
16084
20
-1079.2
30
0
11
16084
21
-541.2
31
0
0
LINE
8
PARTS
10
16084
20
-541.2
30
0
11
15500
21
-541.2
31
0
0
LINE
8
PARTS
10
15500
20
-541.2
30
0
11
15500
21
-1079.2
31
0
0
TEXT
8
LABELS
10
15524
20
-629.2
30
0
40
60
1
shelf-28
7
STANDARD
0
TEXT
8
LABELS
10
15524
20
-701.2
30
0
40
60
1
584x538
7
STANDARD
0
LINE
8
PARTS
10
15500
20
-1620.4
30
0
11
16084
21
-1620.4
31
0
0
LINE
8
PARTS
10
16084
20
-1620.4
30
0
11
16084
21
-1082.4
31
0
0
LINE
8
PARTS
10
16084
20
-1082.4
30
0
11
15500
21
-1082.4
31
0
0
LINE
8
PARTS
10
15500
20
-1082.4
30
0
11
15500
21
-1620.4
31
0
0
TEXT
8
LABELS
10
15524
20
-1170.4
30
0
40
60
1
shelf-29
7
STANDARD
0
TEXT
8
LABELS
10
15524
20
-1242.4
30
0
40
60
1
584x538
7
STANDARD
0
LINE
8
PARTS
10
16087.2
20
-328
30
0
11
16971.2
21
-328
31
0
0
LINE
8
PARTS
10
16971.2
20
-328
30
0
11
16971.2
21
0
31
0
0
LINE
8
PARTS
10
16971.2
20
0
30
0
11
16087.2
21
0
31
0
0
LINE
8
PARTS
10
16087.2
20
0
30
0
11
16087.2
21
-328
31
0
0
TEXT
8
LABELS
10
16111.2
20
-88
30
0
40
60
1
shelf-10
7
STANDARD
0
TEXT
8
LABELS
10
16111.2
20
-160
30
0
40
60
1
884x328
7
STANDARD
0
LINE
8
PARTS
10
16974.4
20
-328
30
0
11
17858.4
21
-328
31
0
0
LINE
8
PARTS
10
17858.4
20
-328
30
0
11
17858.4
21
0
31
0
0
LINE
8
PARTS
10
17858.4
20
0
30
0
11
16974.4
21
0
31
0
0
LINE
8
PARTS
10
16974.4
20
0
30
0
11
16974.4
21
-328
31
0
0
TEXT
8
LABELS
10
16998.4
20
-88
30
0
40
60
1
shelf-11
7
STANDARD
0
TEXT
8
LABELS
10
16998.4
20
-160
30
0
40
60
1
884x328
7
STANDARD
0
LINE
8
PARTS
10
16087.2
20
-659.2
30
0
11
16971.2
21
-659.2
31
0
0
LINE
8
PARTS
10
16971.2
20
-659.2
30
0
11
16971.2
21
-331.20000000000005
31
0
0
LINE
8
PARTS
10
16971.2
20
-331.20000000000005
30
0
11
16087.2
21
-331.20000000000005
31
0
0
LINE
8
PARTS
10
16087.2
20
-331.20000000000005
30
0
11
16087.2
21
-659.2
31
0
0
TEXT
8
LABELS
10
16111.2
20
-419.2
30
0
40
60
1
shelf-12
7
STANDARD
0
TEXT
8
LABELS
10
16111.2
20
-491.2
30
0
40
60
1
884x328
7
STANDARD
0
LINE
8
PARTS
10
16087.2
20
-1259.4
30
0
11
16534.2
21
-1259.4
31
0
0
LINE
8
PARTS
10
16534.2
20
-1259.4
30
0
11
16534.2
21
-662.4000000000001
31
0
0
LINE
8
PARTS
10
16534.2
20
-662.4000000000001
30
0
11
16087.2
21
-662.4000000000001
31
0
0
LINE
8
PARTS
10
16087.2
20
-662.4000000000001
30
0
11
16087.2
21
-1259.4
31
0
0
TEXT
8
LABELS
10
16111.2
20
-750.4000000000001
30
0
40
60
1
front-21
7
STANDARD
0
TEXT
8
LABELS
10
16111.2
20
-822.4000000000001
30
0
40
60
1
447x597
7
STANDARD
0
LINE
8
PARTS
10
16974.4
20
-618.2
30
0
11
17871.4
21
-618.2
31
0
0
LINE
8
PARTS
10
17871.4
20
-618.2
30
0
11
17871.4
21
-331.20000000000005
31
0
0
LINE
8
PARTS
10
17871.4
20
-331.20000000000005
30
0
11
16974.4
21
-331.20000000000005
31
0
0
LINE
8
PARTS
10
16974.4
20
-331.20000000000005
30
0
11
16974.4
21
-618.2
31
0
0
TEXT
8
LABELS
10
16998.4
20
-419.2
30
0
40
60
1
front-10*
7
STANDARD
0
TEXT
8
LABELS
10
16998.4
20
-491.2
30
0
40
60
1
287x897
7
STANDARD
0
LINE
8
PARTS
10
16537.4
20
-1559.4
30
0
11
16824.4
21
-1559.4
31
0
0
LINE
8
PARTS
10
16824.4
20
-1559.4
30
0
11
16824.4
21
-662.4000000000001
31
0
0
LINE
8
PARTS
10
16824.4
20
-662.4000000000001
30
0
11
16537.4
21
-662.4000000000001
31
0
0
LINE
8
PARTS
10
16537.4
20
-662.4000000000001
30
0
11
16537.4
21
-1559.4
31
0
0
TEXT
8
LABELS
10
16561.4
20
-740.1983870967742
30
0
40
49.79838709677419
1
front-15
7
STANDARD
0
TEXT
8
LABELS
10
16561.4
20
-801.9967741935485
30
0
40
49.79838709677419
1
287x897
7
STANDARD
0
LINE
8
PARTS
10
16827.6
20
-1559.4
30
0
11
17064.6
21
-1559.4
31
0
0
LINE
8
PARTS
10
17064.6
20
-1559.4
30
0
11
17064.6
21
-662.4000000000001
31
0
0
LINE
8
PARTS
10
17064.6
20
-662.4000000000001
30
0
11
16827.6
21
-662.4000000000001
31
0
0
LINE
8
PARTS
10
16827.6
20
-662.4000000000001
30
0
11
16827.6
21
-1559.4
31
0
0
TEXT
8
LABELS
10
16851.6
20
-730.117741935484
30
0
40
39.71774193548387
1
front-23
7
STANDARD
0
TEXT
8
LABELS
10
16851.6
20
-781.8354838709679
30
0
40
39.71774193548387
1
237x897
7
STANDARD
0
LINE
8
PARTS
10
17067.8
20
-1559.4
30
0
11
17304.8
21
-1559.4
31
0
0
LINE
8
PARTS
10
17304.8
20
-1559.4
30
0
11
17304.8
21
-662.4000000000001
31
0
0
LINE
8
PARTS
10
17304.8
20
-662.4000000000001
30
0
11
17067.8
21
-662.4000000000001
31
0
0
LINE
8
PARTS
10
17067.8
20
-662.4000000000001
30
0
11
17067.8
21
-1559.4
31
0
0
TEXT
8
LABELS
10
17091.8
20
-730.117741935484
30
0
40
39.71774193548387
1
front-28
7
STANDARD
0
TEXT
8
LABELS
10
17091.8
20
-781.8354838709679
30
0
40
39.71774193548387
1
237x897
7
STANDARD
0
LINE
8
PARTS
10
17308
20
-1559.4
30
0
11
17545
21
-1559.4
31
0
0
LINE
8
PARTS
10
17545
20
-1559.4
30
0
11
17545
21
-662.4000000000001
31
0
0
LINE
8
PARTS
10
17545
20
-662.4000000000001
30
0
11
17308
21
-662.4000000000001
31
0
0
LINE
8
PARTS
10
17308
20
-662.4000000000001
30
0
11
17308
21
-1559.4
31
0
0
TEXT
8
LABELS
10
17332
20
-730.117741935484
30
0
40
39.71774193548387
1
front-33
7
STANDARD
0
TEXT
8
LABELS
10
17332
20
-781.8354838709679
30
0
40
39.71774193548387
1
237x897
7
STANDARD
0
LINE
8
PARTS
10
16827.6
20
-2062.6000000000004
30
0
11
16927.6
21
-2062.6000000000004
31
0
0
LINE
8
PARTS
10
16927.6
20
-2062.6000000000004
30
0
11
16927.6
21
-1562.6000000000004
31
0
0
LINE
8
PARTS
10
16927.6
20
-1562.6000000000004
30
0
11
16827.6
21
-1562.6000000000004
31
0
0
LINE
8
PARTS
10
16827.6
20
-1562.6000000000004
30
0
11
16827.6
21
-2062.6000000000004
31
0
0
TEXT
8
LABELS
10
16851.6
20
-1610.6000000000001
30
0
40
20
1
drawer-side-35*
7
STANDARD
0
TEXT
8
LABELS
10
16851.6
20
-1642.6000000000001
30
0
40
20
1
500x100
7
STANDARD
0
LINE
8
SHEETS
10
18600
20
-2070
30
0
11
21400
21
-2070
31
0
0
LINE
8
SHEETS
10
21400
20
-2070
30
0
11
21400
21
0
31
0
0
LINE
8
SHEETS
10
21400
20
0
30
0
11
18600
21
0
31
0
0
LINE
8
SHEETS
10
18600
20
0
30
0
11
18600
21
-2070
31
0
0
TEXT
8
LABELS
10
18600
20
60
30
0
40
90
1
SHEET 7  2800x2070
7
STANDARD
0
LINE
8
PARTS
10
18600
20
-600
30
0
11
20700
21
-600
31
0
0
LINE
8
PARTS
10
20700
20
-600
30
0
11
20700
21
0
31
0
0
LINE
8
PARTS
10
20700
20
0
30
0
11
18600
21
0
31
0
0
LINE
8
PARTS
10
18600
20
0
30
0
11
18600
21
-600
31
0
0
TEXT
8
LABELS
10
18624
20
-88
30
0
40
60
1
back-30
7
STANDARD
0
TEXT
8
LABELS
10
18624
20
-160
30
0
40
60
1
2100x600
7
STANDARD
0
LINE
8
PARTS
10
18600
20
-1446.2
30
0
11
19100
21
-1446.2
31
0
0
LINE
8
PARTS
10
19100
20
-1446.2
30
0
11
19100
21
-603.2
31
0
0
LINE
8
PARTS
10
19100
20
-603.2
30
0
11
18600
21
-603.2
31
0
0
LINE
8
PARTS
10
18600
20
-603.2
30
0
11
18600
21
-1446.2
31
0
0
TEXT
8
LABELS
10
18624
20
-677.5709677419355
30
0
40
46.37096774193549
1
drawer-bottom-14
7
STANDARD
0
TEXT
8
LABELS
10
18624
20
-735.941935483871
30
0
40
46.37096774193549
1
500x843
7
STANDARD
0
LINE
8
PARTS
10
19103.2
20
-1446.2
30
0
11
19603.2
21
-1446.2
31
0
0
LINE
8
PARTS
10
19603.2
20
-1446.2
30
0
11
19603.2
21
-603.2
31
0
0
LINE
8
PARTS
10
19603.2
20
-603.2
30
0
11
19103.2
21
-603.2
31
0
0
LINE
8
PARTS
10
19103.2
20
-603.2
30
0
11
19103.2
21
-1446.2
31
0
0
TEXT
8
LABELS
10
19127.2
20
-677.5709677419355
30
0
40
46.37096774193549
1
drawer-bottom-19
7
STANDARD
0
TEXT
8
LABELS
10
19127.2
20
-735.941935483871
30
0
40
46.37096774193549
1
500x843
7
STANDARD
0
LINE
8
PARTS
10
19606.4
20
-1446.2
30
0
11
20106.4
21
-1446.2
31
0
0
LINE
8
PARTS
10
20106.4
20
-1446.2
30
0
11
20106.4
21
-603.2
31
0
0
LINE
8
PARTS
10
20106.4
20
-603.2
30
0
11
19606.4
21
-603.2
31
0
0
LINE
8
PARTS
10
19606.4
20
-603.2
30
0
11
19606.4
21
-1446.2
31
0
0
TEXT
8
LABELS
10
19630.4
20
-677.5709677419355
30
0
40
46.37096774193549
1
drawer-bottom-27
7
STANDARD
0
TEXT
8
LABELS
10
19630.4
20
-735.941935483871
30
0
40
46.37096774193549
1
500x843
7
STANDARD
0
LINE
8
PARTS
10
20109.6
20
-1446.2
30
0
11
20609.6
21
-1446.2
31
0
0
LINE
8
PARTS
10
20609.6
20
-1446.2
30
0
11
20609.6
21
-603.2
31
0
0
LINE
8
PARTS
10
20609.6
20
-603.2
30
0
11
20109.6
21
-603.2
31
0
0
LINE
8
PARTS
10
20109.6
20
-603.2
30
0
11
20109.6
21
-1446.2
31
0
0
TEXT
8
LABELS
10
20133.6
20
-677.5709677419355
30
0
40
46.37096774193549
1
drawer-bottom-32
7
STANDARD
0
TEXT
8
LABELS
10
20133.6
20
-735.941935483871
30
0
40
46.37096774193549
1
500x843
7
STANDARD
0
LINE
8
PARTS
10
20612.8
20
-1446.2
30
0
11
21112.8
21
-1446.2
31
0
0
LINE
8
PARTS
10
21112.8
20
-1446.2
30
0
11
21112.8
21
-603.2
31
0
0
LINE
8
PARTS
10
21112.8
20
-603.2
30
0
11
20612.8
21
-603.2
31
0
0
LINE
8
PARTS
10
20612.8
20
-603.2
30
0
11
20612.8
21
-1446.2
31
0
0
TEXT
8
LABELS
10
20636.8
20
-677.5709677419355
30
0
40
46.37096774193549
1
drawer-bottom-37
7
STANDARD
0
TEXT
8
LABELS
10
20636.8
20
-735.941935483871
30
0
40
46.37096774193549
1
500x843
7
STANDARD
0
LINE
8
PARTS
10
18600
20
-1992.4
30
0
11
19100
21
-1992.4
31
0
0
LINE
8
PARTS
10
19100
20
-1992.4
30
0
11
19100
21
-1449.4
31
0
0
LINE
8
PARTS
10
19100
20
-1449.4
30
0
11
18600
21
-1449.4
31
0
0
LINE
8
PARTS
10
18600
20
-1449.4
30
0
11
18600
21
-1992.4
31
0
0
TEXT
8
LABELS
10
18624
20
-1523.7709677419357
30
0
40
46.37096774193549
1
drawer-bottom-20
7
STANDARD
0
TEXT
8
LABELS
10
18624
20
-1582.141935483871
30
0
40
46.37096774193549
1
500x543
7
STANDARD
0
LINE
8
PARTS
10
19103.2
20
-1992.4
30
0
11
19603.2
21
-1992.4
31
0
0
LINE
8
PARTS
10
19603.2
20
-1992.4
30
0
11
19603.2
21
-1449.4
31
0
0
LINE
8
PARTS
10
19603.2
20
-1449.4
30
0
11
19103.2
21
-1449.4
31
0
0
LINE
8
PARTS
10
19103.2
20
-1449.4
30
0
11
19103.2
21
-1992.4
31
0
0
TEXT
8
LABELS
10
19127.2
20
-1523.7709677419357
30
0
40
46.37096774193549
1
drawer-bottom-25
7
STANDARD
0
TEXT
8
LABELS
10
19127.2
20
-1582.141935483871
30
0
40
46.37096774193549
1
500x543
7
STANDARD
0
LINE
8
PARTS
10
19606.4
20
-2049.4
30
0
11
19956.4
21
-2049.4
31
0
0
LINE
8
PARTS
10
19956.4
20
-2049.4
30
0
11
19956.4
21
-1449.4
31
0
0
LINE
8
PARTS
10
19956.4
20
-1449.4
30
0
11
19606.4
21
-1449.4
31
0
0
LINE
8
PARTS
10
19606.4
20
-1449.4
30
0
11
19606.4
21
-2049.4
31
0
0
TEXT
8
LABELS
10
19630.4
20
-1537.4
30
0
40
60
1
back-32
7
STANDARD
0
TEXT
8
LABELS
10
19630.4
20
-1609.4
30
0
40
60
1
350x600
7
STANDARD
0
LINE
8
PARTS
10
20109.6
20
-2049.4
30
0
11
20459.6
21
-2049.4
31
0
0
LINE
8
PARTS
10
20459.6
20
-2049.4
30
0
11
20459.6
21
-1449.4
31
0
0
LINE
8
PARTS
10
20459.6
20
-1449.4
30
0
11
20109.6
21
-1449.4
31
0
0
LINE
8
PARTS
10
20109.6
20
-1449.4
30
0
11
20109.6
21
-2049.4
31
0
0
TEXT
8
LABELS
10
20133.6
20
-1537.4
30
0
40
60
1
back-34
7
STANDARD
0
TEXT
8
LABELS
10
20133.6
20
-1609.4
30
0
40
60
1
350x600
7
STANDARD
0
LINE
8
PARTS
10
20703.2
20
-600
30
0
11
21053.2
21
-600
31
0
0
LINE
8
PARTS
10
21053.2
20
-600
30
0
11
21053.2
21
0
31
0
0
LINE
8
PARTS
10
21053.2
20
0
30
0
11
20703.2
21
0
31
0
0
LINE
8
PARTS
10
20703.2
20
0
30
0
11
20703.2
21
-600
31
0
0
TEXT
8
LABELS
10
20727.2
20
-88
30
0
40
60
1
back-36
7
STANDARD
0
TEXT
8
LABELS
10
20727.2
20
-160
30
0
40
60
1
350x600
7
STANDARD
0
ENDSEC
0
EOF