0
SECTION
2
HEADER
9
$ACADVER
1
AC1009
9
$INSUNITS
70
4
0
ENDSEC
0
SECTION
2
TABLES
0
TABLE
2
STYLE
70
1
0
STYLE
2
STANDARD
70
0
40
0
41
1
50
0
71
0
42
2.5
3
txt
4

0
ENDTAB
0
TABLE
2
LAYER
70
3
0
LAYER
2
SHEETS
70
0
62
5
6
CONTINUOUS
0
LAYER
2
PARTS
70
0
62
7
6
CONTINUOUS
0
LAYER
2
LABELS
70
0
62
3
6
CONTINUOUS
0
ENDTAB
0
ENDSEC
0
SECTION
2
ENTITIES
0
LINE
8
SHEETS
10
0
20
-2070
30
0
11
2800
21
-2070
31
0
0
LINE
8
SHEETS
10
2800
20
-2070
30
0
11
2800
21
0
31
0
0
LINE
8
SHEETS
10
2800
20
0
30
0
11
0
21
0
31
0
0
LINE
8
SHEETS
10
0
20
0
30
0
11
0
21
-2070
31
0
0
TEXT
8
LABELS
10
0
20
60
30
0
40
90
1
SHEET 1  2800x2070
7
STANDARD
0
LINE
8
PARTS
10
0
20
-600
30
0
11
2105
21
-600
31
0
0
LINE
8
PARTS
10
2105
20
-600
30
0
11
2105
21
0
31
0
0
LINE
8
PARTS
10
2105
20
0
30
0
11
0
21
0
31
0
0
LINE
8
PARTS
10
0
20
0
30
0
11
0
21
-600
31
0
0
TEXT
8
LABELS
10
24
20
-88
30
0
40
60
1
worktop-10
7
STANDARD
0
TEXT
8
LABELS
10
24
20
-160
30
0
40
60
1
2105x600
7
STANDARD
0
LINE
8
PARTS
10
0
20
-1163.2
30
0
11
2096
21
-1163.2
31
0
0
LINE
8
PARTS
10
2096
20
-1163.2
30
0
11
2096
21
-603.2
31
0
0
LINE
8
PARTS
10
2096
20
-603.2
30
0
11
0
21
-603.2
31
0
0
LINE
8
PARTS
10
0
20
-603.2
30
0
11
0
21
-1163.2
31
0
0
TEXT
8
LABELS
10
24
20
-691.2
30
0
40
60
1
plinth-3
7
STANDARD
0
TEXT
8
LABELS
10
24
20
-763.2
30
0
40
60
1
2096x560
7
STANDARD
0
LINE
8
PARTS
10
0
20
-1726.4
30
0
11
2089
21
-1726.4
31
0
0
LINE
8
PARTS
10
2089
20
-1726.4
30
0
11
2089
21
-1166.4
31
0
0
LINE
8
PARTS
10
2089
20
-1166.4
30
0
11
0
21
-1166.4
31
0
0
LINE
8
PARTS
10
0
20
-1166.4
30
0
11
0
21
-1726.4
31
0
0
TEXT
8
LABELS
10
24
20
-1254.4
30
0
40
60
1
bottom-1
7
STANDARD
0
TEXT
8
LABELS
10
24
20
-1326.4
30
0
40
60
1
2089x560
7
STANDARD
0
LINE
8
PARTS
10
2092.2
20
-2062.4
30
0
11
2652.2
21
-2062.4
31
0
0
LINE
8
PARTS
10
2652.2
20
-2062.4
30
0
11
2652.2
21
-1166.4
31
0
0
LINE
8
PARTS
10
2652.2
20
-1166.4
30
0
11
2092.2
21
-1166.4
31
0
0
LINE
8
PARTS
10
2092.2
20
-1166.4
30
0
11
2092.2
21
-2062.4
31
0
0
TEXT
8
LABELS
10
2116.2
20
-1254.4
30
0
40
60
1
plinth-4*
7
STANDARD
0
TEXT
8
LABELS
10
2116.2
20
-1326.4
30
0
40
60
1
896x560
7
STANDARD
0
LINE
8
PARTS
10
2108.2
20
-600
30
0
11
2713.2
21
-600
31
0
0
LINE
8
PARTS
10
2713.2
20
-600
30
0
11
2713.2
21
0
31
0
0
LINE
8
PARTS
10
2713.2
20
0
30
0
11
2108.2
21
0
31
0
0
LINE
8
PARTS
10
2108.2
20
0
30
0
11
2108.2
21
-600
31
0
0
TEXT
8
LABELS
10
2132.2
20
-88
30
0
40
60
1
worktop-8
7
STANDARD
0
TEXT
8
LABELS
10
2132.2
20
-160
30
0
40
60
1
605x600
7
STANDARD
0
LINE
8
PARTS
10
2099.2
20
-960.2
30
0
11
2696.2
21
-960.2
31
0
0
LINE
8
PARTS
10
2696.2
20
-960.2
30
0
11
2696.2
21
-603.2
31
0
0
LINE
8
PARTS
10
2696.2
20
-603.2
30
0
11
2099.2
21
-603.2
31
0
0
LINE
8
PARTS
10
2099.2
20
-603.2
30
0
11
2099.2
21
-960.2
31
0
0
TEXT
8
LABELS
10
2123.2
20
-691.2
30
0
40
60
1
front-9*
7
STANDARD
0
TEXT
8
LABELS
10
2123.2
20
-763.2
30
0
40
60
1
357x597
7
STANDARD
0
LINE
8
PARTS
10
0
20
-2026.6000000000001
30
0
11
717
21
-2026.6000000000001
31
0
0
LINE
8
PARTS
10
717
20
-2026.6000000000001
30
0
11
717
21
-1729.6000000000001
31
0
0
LINE
8
PARTS
10
717
20
-1729.6000000000001
30
0
11
0
21
-1729.6000000000001
31
0
0
LINE
8
PARTS
10
0
20
-1729.6000000000001
30
0
11
0
21
-2026.6000000000001
31
0
0
TEXT
8
LABELS
10
24
20
-1817.6000000000001
30
0
40
60
1
front-20
7
STANDARD
0
TEXT
8
LABELS
10
24
20
-1889.6000000000001
30
0
40
60
1
717x297
7
STANDARD
0
LINE
8
PARTS
10
720.2
20
-2026.6000000000001
30
0
11
1437.2
21
-2026.6000000000001
31
0
0
LINE
8
PARTS
10
1437.2
20
-2026.6000000000001
30
0
11
1437.2
21
-1729.6000000000001
31
0
0
LINE
8
PARTS
10
1437.2
20
-1729.6000000000001
30
0
11
720.2
21
-1729.6000000000001
31
0
0
LINE
8
PARTS
10
720.2
20
-1729.6000000000001
30
0
11
720.2
21
-2026.6000000000001
31
0
0
TEXT
8
LABELS
10
744.2
20
-1817.6000000000001
30
0
40
60
1
front-21
7
STANDARD
0
TEXT
8
LABELS
10
744.2
20
-1889.6000000000001
30
0
40
60
1
717x297
7
STANDARD
0
LINE
8
PARTS
10
1440.4
20
-2026.6000000000001
30
0
11
2017.4
21
-2026.6000000000001
31
0
0
LINE
8
PARTS
10
2017.4
20
-2026.6000000000001
30
0
11
2017.4
21
-1729.6000000000001
31
0
0
LINE
8
PARTS
10
2017.4
20
-1729.6000000000001
30
0
11
1440.4
21
-1729.6000000000001
31
0
0
LINE
8
PARTS
10
1440.4
20
-1729.6000000000001
30
0
11
1440.4
21
-2026.6000000000001
31
0
0
TEXT
8
LABELS
10
1464.4
20
-1817.6000000000001
30
0
40
60
1
front-13
7
STANDARD
0
TEXT
8
LABELS
10
1464.4
20
-1889.6000000000001
30
0
40
60
1
577x297
7
STANDARD
0
LINE
8
PARTS
10
2655.3999999999996
20
-2025.4
30
0
11
2755.3999999999996
21
-2025.4
31
0
0
LINE
8
PARTS
10
2755.3999999999996
20
-2025.4
30
0
11
2755.3999999999996
21
-1166.4
31
0
0
LINE
8
PARTS
10
2755.3999999999996
20
-1166.4
30
0
11
2655.3999999999996
21
-1166.4
31
0
0
LINE
8
PARTS
10
2655.3999999999996
20
-1166.4
30
0
11
2655.3999999999996
21
-2025.4
31
0
0
TEXT
8
LABELS
10
2679.3999999999996
20
-1214.4
30
0
40
20
1
drawer-back-19*
7
STANDARD
0
TEXT
8
LABELS
10
2679.3999999999996
20
-1246.4
30
0
40
20
1
859x100
7
STANDARD
0
LINE
8
PARTS
10
2099.2
20
-1100.4
30
0
11
2696.2
21
-1100.4
31
0
0
LINE
8
PARTS
10
2696.2
20
-1100.4
30
0
11
2696.2
21
-963.4000000000001
31
0
0
LINE
8
PARTS
10
2696.2
20
-963.4000000000001
30
0
11
2099.2
21
-963.4000000000001
31
0
0
LINE
8
PARTS
10
2099.2
20
-963.4000000000001
30
0
11
2099.2
21
-1100.4
31
0
0
TEXT
8
LABELS
10
2123.2
20
-1029.9
30
0
40
38.5
1
front-12*
7
STANDARD
0
TEXT
8
LABELS
10
2123.2
20
-1080.4
30
0
40
38.5
1
137x597
7
STANDARD
0
LINE
8
SHEETS
10
3100
20
-2070
30
0
11
5900
21
-2070
31
0
0
LINE
8
SHEETS
10
5900
20
-2070
30
0
11
5900
21
0
31
0
0
LINE
8
SHEETS
10
5900
20
0
30
0
11
3100
21
0
31
0
0
LINE
8
SHEETS
10
3100
20
0
30
0
11
3100
21
-2070
31
0
0
TEXT
8
LABELS
10
3100
20
60
30
0
40
90
1
SHEET 2  2800x2070
7
STANDARD
0
LINE
8
PARTS
10
3100
20
-600
30
0
11
4950
21
-600
31
0
0
LINE
8
PARTS
10
4950
20
-600
30
0
11
4950
21
0
31
0
0
LINE
8
PARTS
10
4950
20
0
30
0
11
3100
21
0
31
0
0
LINE
8
PARTS
10
3100
20
0
30
0
11
3100
21
-600
31
0
0
TEXT
8
LABELS
10
3124
20
-88
30
0
40
60
1
worktop-7
7
STANDARD
0
TEXT
8
LABELS
10
3124
20
-160
30
0
40
60
1
1850x600
7
STANDARD
0
LINE
8
PARTS
10
3100
20
-1163.2
30
0
11
4896
21
-1163.2
31
0
0
LINE
8
PARTS
10
4896
20
-1163.2
30
0
11
4896
21
-603.2
31
0
0
LINE
8
PARTS
10
4896
20
-603.2
30
0
11
3100
21
-603.2
31
0
0
LINE
8
PARTS
10
3100
20
-603.2
30
0
11
3100
21
-1163.2
31
0
0
TEXT
8
LABELS
10
3124
20
-691.2
30
0
40
60
1
plinth-2
7
STANDARD
0
TEXT
8
LABELS
10
3124
20
-763.2
30
0
40
60
1
1796x560
7
STANDARD
0
LINE
8
PARTS
10
3100
20
-1726.4
30
0
11
4896
21
-1726.4
31
0
0
LINE
8
PARTS
10
4896
20
-1726.4
30
0
11
4896
21
-1166.4
31
0
0
LINE
8
PARTS
10
4896
20
-1166.4
30
0
11
3100
21
-1166.4
31
0
0
LINE
8
PARTS
10
3100
20
-1166.4
30
0
11
3100
21
-1726.4
31
0
0
TEXT
8
LABELS
10
3124
20
-1254.4
30
0
40
60
1
plinth-2
7
STANDARD
0
TEXT
8
LABELS
10
3124
20
-1326.4
30
0
40
60
1
1796x560
7
STANDARD
0
LINE
8
PARTS
10
4953.2
20
-600
30
0
11
5858.2
21
-600
31
0
0
LINE
8
PARTS
10
5858.2
20
-600
30
0
11
5858.2
21
0
31
0
0
LINE
8
PARTS
10
5858.2
20
0
30
0
11
4953.2
21
0
31
0
0
LINE
8
PARTS
10
4953.2
20
0
30
0
11
4953.2
21
-600
31
0
0
TEXT
8
LABELS
10
4977.2
20
-88
30
0
40
60
1
worktop-11
7
STANDARD
0
TEXT
8
LABELS
10
4977.2
20
-160
30
0
40
60
1
905x600
7
STANDARD
0
LINE
8
PARTS
10
4899.2
20
-1203.2
30
0
11
5804.2
21
-1203.2
31
0
0
LINE
8
PARTS
10
5804.2
20
-1203.2
30
0
11
5804.2
21
-603.2
31
0
0
LINE
8
PARTS
10
5804.2
20
-603.2
30
0
11
4899.2
21
-603.2
31
0
0
LINE
8
PARTS
10
4899.2
20
-603.2
30
0
11
4899.2
21
-1203.2
31
0
0
TEXT
8
LABELS
10
4923.2
20
-691.2
30
0
40
60
1
worktop-7
7
STANDARD
0
TEXT
8
LABELS
10
4923.2
20
-763.2
30
0
40
60
1
905x600
7
STANDARD
0
LINE
8
PARTS
10
4899.2
20
-1766.4
30
0
11
5788.2
21
-1766.4
31
0
0
LINE
8
PARTS
10
5788.2
20
-1766.4
30
0
11
5788.2
21
-1206.4
31
0
0
LINE
8
PARTS
10
5788.2
20
-1206.4
30
0
11
4899.2
21
-1206.4
31
0
0
LINE
8
PARTS
10
4899.2
20
-1206.4
30
0
11
4899.2
21
-1766.4
31
0
0
TEXT
8
LABELS
10
4923.2
20
-1294.4
30
0
40
60
1
bottom-2
7
STANDARD
0
TEXT
8
LABELS
10
4923.2
20
-1366.4
30
0
40
60
1
889x560
7
STANDARD
0
LINE
8
PARTS
10
4899.2
20
-2006.6000000000001
30
0
11
5796.2
21
-2006.6000000000001
31
0
0
LINE
8
PARTS
10
5796.2
20
-2006.6000000000001
30
0
11
5796.2
21
-1769.6000000000001
31
0
0
LINE
8
PARTS
10
5796.2
20
-1769.6000000000001
30
0
11
4899.2
21
-1769.6000000000001
31
0
0
LINE
8
PARTS
10
4899.2
20
-1769.6000000000001
30
0
11
4899.2
21
-2006.6000000000001
31
0
0
TEXT
8
LABELS
10
4923.2
20
-1857.6000000000001
30
0
40
60
1
front-16*
7
STANDARD
0
TEXT
8
LABELS
10
4923.2
20
-1929.6000000000001
30
0
40
60
1
237x897
7
STANDARD
0
LINE
8
PARTS
10
3100
20
-1966.6000000000001
30
0
11
3997
21
-1966.6000000000001
31
0
0
LINE
8
PARTS
10
3997
20
-1966.6000000000001
30
0
11
3997
21
-1729.6000000000001
31
0
0
LINE
8
PARTS
10
3997
20
-1729.6000000000001
30
0
11
3100
21
-1729.6000000000001
31
0
0
LINE
8
PARTS
10
3100
20
-1729.6000000000001
30
0
11
3100
21
-1966.6000000000001
31
0
0
TEXT
8
LABELS
10
3124
20
-1817.6000000000001
30
0
40
60
1
front-21*
7
STANDARD
0
TEXT
8
LABELS
10
3124
20
-1889.6000000000001
30
0
40
60
1
237x897
7
STANDARD
0
LINE
8
PARTS
10
4000.2
20
-2026.6000000000001
30
0
11
4577.2
21
-2026.6000000000001
31
0
0
LINE
8
PARTS
10
4577.2
20
-2026.6000000000001
30
0
11
4577.2
21
-1729.6000000000001
31
0
0
LINE
8
PARTS
10
4577.2
20
-1729.6000000000001
30
0
11
4000.2
21
-1729.6000000000001
31
0
0
LINE
8
PARTS
10
4000.2
20
-1729.6000000000001
30
0
11
4000.2
21
-2026.6000000000001
31
0
0
TEXT
8
LABELS
10
4024.2
20
-1817.6000000000001
30
0
40
60
1
front-14
7
STANDARD
0
TEXT
8
LABELS
10
4024.2
20
-1889.6000000000001
30
0
40
60
1
577x297
7
STANDARD
0
LINE
8
PARTS
10
3100
20
-2069.8
30
0
11
3959
21
-2069.8
31
0
0
LINE
8
PARTS
10
3959
20
-2069.8
30
0
11
3959
21
-1969.8000000000002
31
0
0
LINE
8
PARTS
10
3959
20
-1969.8000000000002
30
0
11
3100
21
-1969.8000000000002
31
0
0
LINE
8
PARTS
10
3100
20
-1969.8000000000002
30
0
11
3100
21
-2069.8
31
0
0
TEXT
8
LABELS
10
3124
20
-2017.8000000000002
30
0
40
20
1
drawer-back-24
7
STANDARD
0
TEXT
8
LABELS
10
3124
20
-2049.8
30
0
40
20
1
859x100
7
STANDARD
0
LINE
8
PARTS
10
5791.4
20
-1765.4
30
0
11
5891.4
21
-1765.4
31
0
0
LINE
8
PARTS
10
5891.4
20
-1765.4
30
0
11
5891.4
21
-1206.4
31
0
0
LINE
8
PARTS
10
5891.4
20
-1206.4
30
0
11
5791.4
21
-1206.4
31
0
0
LINE
8
PARTS
10
5791.4
20
-1206.4
30
0
11
5791.4
21
-1765.4
31
0
0
TEXT
8
LABELS
10
5815.4
20
-1254.4
30
0
40
20
1
drawer-back-12*
7
STANDARD
0
TEXT
8
LABELS
10
5815.4
20
-1286.4
30
0
40
20
1
559x100
7
STANDARD
0
LINE
8
SHEETS
10
6200
20
-2070
30
0
11
9000
21
-2070
31
0
0
LINE
8
SHEETS
10
9000
20
-2070
30
0
11
9000
21
0
31
0
0
LINE
8
SHEETS
10
9000
20
0
30
0
11
6200
21
0
31
0
0
LINE
8
SHEETS
10
6200
20
0
30
0
11
6200
21
-2070
31
0
0
TEXT
8
LABELS
10
6200
20
60
30
0
40
90
1
SHEET 3  2800x2070
7
STANDARD
0
LINE
8
PARTS
10
6200
20
-560
30
0
11
7981
21
-560
31
0
0
LINE
8
PARTS
10
7981
20
-560
30
0
11
7981
21
0
31
0
0
LINE
8
PARTS
10
7981
20
0
30
0
11
6200
21
0
31
0
0
LINE
8
PARTS
10
6200
20
0
30
0
11
6200
21
-560
31
0
0
TEXT
8
LABELS
10
6224
20
-88
30
0
40
60
1
bottom-1
7
STANDARD
0
TEXT
8
LABELS
10
6224
20
-160
30
0
40
60
1
1781x560
7
STANDARD
0
LINE
8
PARTS
10
6200
20
-1123.2
30
0
11
7981
21
-1123.2
31
0
0
LINE
8
PARTS
10
7981
20
-1123.2
30
0
11
7981
21
-563.2
31
0
0
LINE
8
PARTS
10
7981
20
-563.2
30
0
11
6200
21
-563.2
31
0
0
LINE
8
PARTS
10
6200
20
-563.2
30
0
11
6200
21
-1123.2
31
0
0
TEXT
8
LABELS
10
6224
20
-651.2
30
0
40
60
1
bottom-1
7
STANDARD
0
TEXT
8
LABELS
10
6224
20
-723.2
30
0
40
60
1
1781x560
7
STANDARD
0
LINE
8
PARTS
10
6200
20
-1726.4
30
0
11
7750
21
-1726.4
31
0
0
LINE
8
PARTS
10
7750
20
-1726.4
30
0
11
7750
21
-1126.4
31
0
0
LINE
8
PARTS
10
7750
20
-1126.4
30
0
11
6200
21
-1126.4
31
0
0
LINE
8
PARTS
10
6200
20
-1126.4
30
0
11
6200
21
-1726.4
31
0
0
TEXT
8
LABELS
10
6224
20
-1214.4
30
0
40
60
1
worktop-6
7
STANDARD
0
TEXT
8
LABELS
10
6224
20
-1286.4
30
0
40
60
1
1550x600
7
STANDARD
0
LINE
8
PARTS
10
7984.2
20
-560
30
0
11
8702.2
21
-560
31
0
0
LINE
8
PARTS
10
8702.2
20
-560
30
0
11
8702.2
21
0
31
0
0
LINE
8
PARTS
10
8702.2
20
0
30
0
11
7984.2
21
0
31
0
0
LINE
8
PARTS
10
7984.2
20
0
30
0
11
7984.2
21
-560
31
0
0
TEXT
8
LABELS
10
8008.2
20
-88
30
0
40
60
1
side-4
7
STANDARD
0
TEXT
8
LABELS
10
8008.2
20
-160
30
0
40
60
1
718x560
7
STANDARD
0
LINE
8
PARTS
10
7984.2
20
-1123.2
30
0
11
8702.2
21
-1123.2
31
0
0
LINE
8
PARTS
10
8702.2
20
-1123.2
30
0
11
8702.2
21
-563.2
31
0
0
LINE
8
PARTS
10
8702.2
20
-563.2
30
0
11
7984.2
21
-563.2
31
0
0
LINE
8
PARTS
10
7984.2
20
-563.2
30
0
11
7984.2
21
-1123.2
31
0
0
TEXT
8
LABELS
10
8008.2
20
-651.2
30
0
40
60
1
side-4
7
STANDARD
0
TEXT
8
LABELS
10
8008.2
20
-723.2
30
0
40
60
1
718x560
7
STANDARD
0
LINE
8
PARTS
10
7984.2
20
-1686.4
30
0
11
8701.2
21
-1686.4
31
0
0
LINE
8
PARTS
10
8701.2
20
-1686.4
30
0
11
8701.2
21
-1126.4
31
0
0
LINE
8
PARTS
10
8701.2
20
-1126.4
30
0
11
7984.2
21
-1126.4
31
0
0
LINE
8
PARTS
10
7984.2
20
-1126.4
30
0
11
7984.2
21
-1686.4
31
0
0
TEXT
8
LABELS
10
8008.2
20
-1214.4
30
0
40
60
1
side-5
7
STANDARD
0
TEXT
8
LABELS
10
8008.2
20
-1286.4
30
0
40
60
1
717x560
7
STANDARD
0
LINE
8
PARTS
10
7984.2
20
-2046.6000000000001
30
0
11
8881.2
21
-2046.6000000000001
31
0
0
LINE
8
PARTS
10
8881.2
20
-2046.6000000000001
30
0
11
8881.2
21
-1689.6000000000001
31
0
0
LINE
8
PARTS
10
8881.2
20
-1689.6000000000001
30
0
11
7984.2
21
-1689.6000000000001
31
0
0
LINE
8
PARTS
10
7984.2
20
-1689.6000000000001
30
0
11
7984.2
21
-2046.6000000000001
31
0
0
TEXT
8
LABELS
10
8008.2
20
-1777.6000000000001
30
0
40
60
1
front-32*
7
STANDARD
0
TEXT
8
LABELS
10
8008.2
20
-1849.6000000000001
30
0
40
60
1
357x897
7
STANDARD
0
LINE
8
PARTS
10
6200
20
-1966.6000000000001
30
0
11
7097
21
-1966.6000000000001
31
0
0
LINE
8
PARTS
10
7097
20
-1966.6000000000001
30
0
11
7097
21
-1729.6000000000001
31
0
0
LINE
8
PARTS
10
7097
20
-1729.6000000000001
30
0
11
6200
21
-1729.6000000000001
31
0
0
LINE
8
PARTS
10
6200
20
-1729.6000000000001
30
0
11
6200
21
-1966.6000000000001
31
0
0
TEXT
8
LABELS
10
6224
20
-1817.6000000000001
30
0
40
60
1
front-26*
7
STANDARD
0
TEXT
8
LABELS
10
6224
20
-1889.6000000000001
30
0
40
60
1
237x897
7
STANDARD
0
LINE
8
PARTS
10
6200
20
-2069.8
30
0
11
7059
21
-2069.8
31
0
0
LINE
8
PARTS
10
7059
20
-2069.8
30
0
11
7059
21
-1969.8000000000002
31
0
0
LINE
8
PARTS
10
7059
20
-1969.8000000000002
30
0
11
6200
21
-1969.8000000000002
31
0
0
LINE
8
PARTS
10
6200
20
-1969.8000000000002
30
0
11
6200
21
-2069.8
31
0
0
TEXT
8
LABELS
10
6224
20
-2017.8000000000002
30
0
40
20
1
drawer-back-29
7
STANDARD
0
TEXT
8
LABELS
10
6224
20
-2049.8
30
0
40
20
1
859x100
7
STANDARD
0
LINE
8
PARTS
10
7100.2
20
-1829.6000000000001
30
0
11
7959.2
21
-1829.6000000000001
31
0
0
LINE
8
PARTS
10
7959.2
20
-1829.6000000000001
30
0
11
7959.2
21
-1729.6000000000001
31
0
0
LINE
8
PARTS
10
7959.2
20
-1729.6000000000001
30
0
11
7100.2
21
-1729.6000000000001
31
0
0
LINE
8
PARTS
10
7100.2
20
-1729.6000000000001
30
0
11
7100.2
21
-1829.6000000000001
31
0
0
TEXT
8
LABELS
10
7124.2
20
-1777.6000000000001
30
0
40
20
1
drawer-back-35
7
STANDARD
0
TEXT
8
LABELS
10
7124.2
20
-1809.6000000000001
30
0
40
20
1
859x100
7
STANDARD
0
LINE
8
PARTS
10
7100.2
20
-1932.8000000000002
30
0
11
7959.2
21
-1932.8000000000002
31
0
0
LINE
8
PARTS
10
7959.2
20
-1932.8000000000002
30
0
11
7959.2
21
-1832.8000000000002
31
0
0
LINE
8
PARTS
10
7959.2
20
-1832.8000000000002
30
0
11
7100.2
21
-1832.8000000000002
31
0
0
LINE
8
PARTS
10
7100.2
20
-1832.8000000000002
30
0
11
7100.2
21
-1932.8000000000002
31
0
0
TEXT
8
LABELS
10
7124.2
20
-1880.8000000000002
30
0
40
20
1
drawer-back-40
7
STANDARD
0
TEXT
8
LABELS
10
7124.2
20
-1912.8000000000002
30
0
40
20
1
859x100
7
STANDARD
0
LINE
8
PARTS
10
7100.2
20
-2036.0000000000002
30
0
11
7959.2
21
-2036.0000000000002
31
0
0
LINE
8
PARTS
10
7959.2
20
-2036.0000000000002
30
0
11
7959.2
21
-1936.0000000000002
31
0
0
LINE
8
PARTS
10
7959.2
20
-1936.0000000000002
30
0
11
7100.2
21
-1936.0000000000002
31
0
0
LINE
8
PARTS
10
7100.2
20
-1936.0000000000002
30
0
11
7100.2
21
-2036.0000000000002
31
0
0
TEXT
8
LABELS
10
7124.2
20
-1984.0000000000002
30
0
40
20
1
drawer-back-11
7
STANDARD
0
TEXT
8
LABELS
10
7124.2
20
-2016.0000000000002
30
0
40
20
1
859x100
7
STANDARD
0
LINE
8
PARTS
10
7753.2
20
-1685.4
30
0
11
7853.2
21
-1685.4
31
0
0
LINE
8
PARTS
10
7853.2
20
-1685.4
30
0
11
7853.2
21
-1126.4
31
0
0
LINE
8
PARTS
10
7853.2
20
-1126.4
30
0
11
7753.2
21
-1126.4
31
0
0
LINE
8
PARTS
10
7753.2
20
-1126.4
30
0
11
7753.2
21
-1685.4
31
0
0
TEXT
8
LABELS
10
7777.2
20
-1174.4
30
0
40
20
1
drawer-back-17*
7
STANDARD
0
TEXT
8
LABELS
10
7777.2
20
-1206.4
30
0
40
20
1
559x100
7
STANDARD
0
LINE
8
PARTS
10
7856.4
20
-1626.4
30
0
11
7956.4
21
-1626.4
31
0
0
LINE
8
PARTS
10
7956.4
20
-1626.4
30
0
11
7956.4
21
-1126.4
31
0
0
LINE
8
PARTS
10
7956.4
20
-1126.4
30
0
11
7856.4
21
-1126.4
31
0
0
LINE
8
PARTS
10
7856.4
20
-1126.4
30
0
11
7856.4
21
-1626.4
31
0
0
TEXT
8
LABELS
10
7880.4
20
-1174.4
30
0
40
20
1
drawer-side-17*
7
STANDARD
0
TEXT
8
LABELS
10
7880.4
20
-1206.4
30
0
40
20
1
500x100
7
STANDARD
0
LINE
8
PARTS
10
8705.4
20
-500
30
0
11
8805.4
21
-500
31
0
0
LINE
8
PARTS
10
8805.4
20
-500
30
0
11
8805.4
21
0
31
0
0
LINE
8
PARTS
10
8805.4
20
0
30
0
11
8705.4
21
0
31
0
0
LINE
8
PARTS
10
8705.4
20
0
30
0
11
8705.4
21
-500
31
0
0
TEXT
8
LABELS
10
8729.4
20
-48
30
0
40
20
1
drawer-side-18*
7
STANDARD
0
TEXT
8
LABELS
10
8729.4
20
-80
30
0
40
20
1
500x100
7
STANDARD
0
LINE
8
PARTS
10
8808.599999999999
20
-500
30
0
11
8908.599999999999
21
-500
31
0
0
LINE
8
PARTS
10
8908.599999999999
20
-500
30
0
11
8908.599999999999
21
0
31
0
0
LINE
8
PARTS
10
8908.599999999999
20
0
30
0
11
8808.599999999999
21
0
31
0
0
LINE
8
PARTS
10
8808.599999999999
20
0
30
0
11
8808.599999999999
21
-500
31
0
0
TEXT
8
LABELS
10
8832.599999999999
20
-48
30
0
40
20
1
drawer-side-22*
7
STANDARD
0
TEXT
8
LABELS
10
8832.599999999999
20
-80
30
0
40
20
1
500x100
7
STANDARD
0
LINE
8
PARTS
10
8705.4
20
-1063.2
30
0
11
8805.4
21
-1063.2
31
0
0
LINE
8
PARTS
10
8805.4
20
-1063.2
30
0
11
8805.4
21
-563.2
31
0
0
LINE
8
PARTS
10
8805.4
20
-563.2
30
0
11
8705.4
21
-563.2
31
0
0
LINE
8
PARTS
10
8705.4
20
-563.2
30
0
11
8705.4
21
-1063.2
31
0
0
TEXT
8
LABELS
10
8729.4
20
-611.2
30
0
40
20
1
drawer-side-23*
7
STANDARD
0
TEXT
8
LABELS
10
8729.4
20
-643.2
30
0
40
20
1
500x100
7
STANDARD
0
LINE
8
PARTS
10
8808.599999999999
20
-1063.2
30
0
11
8908.599999999999
21
-1063.2
31
0
0
LINE
8
PARTS
10
8908.599999999999
20
-1063.2
30
0
11
8908.599999999999
21
-563.2
31
0
0
LINE
8
PARTS
10
8908.599999999999
20
-563.2
30
0
11
8808.599999999999
21
-563.2
31
0
0
LINE
8
PARTS
10
8808.599999999999
20
-563.2
30
0
11
8808.599999999999
21
-1063.2
31
0
0
TEXT
8
LABELS
10
8832.599999999999
20
-611.2
30
0
40
20
1
drawer-side-27*
7
STANDARD
0
TEXT
8
LABELS
10
8832.599999999999
20
-643.2
30
0
40
20
1
500x100
7
STANDARD
0
LINE
8
PARTS
10
8704.4
20
-1626.4
30
0
11
8804.4
21
-1626.4
31
0
0
LINE
8
PARTS
10
8804.4
20
-1626.4
30
0
11
8804.4
21
-1126.4
31
0
0
LINE
8
PARTS
10
8804.4
20
-1126.4
30
0
11
8704.4
21
-1126.4
31
0
0
LINE
8
PARTS
10
8704.4
20
-1126.4
30
0
11
8704.4
21
-1626.4
31
0
0
TEXT
8
LABELS
10
8728.4
20
-1174.4
30
0
40
20
1
drawer-side-28*
7
STANDARD
0
TEXT
8
LABELS
10
8728.4
20
-1206.4
30
0
40
20
1
500x100
7
STANDARD
0
LINE
8
PARTS
10
8807.599999999999
20
-1626.4
30
0
11
8907.599999999999
21
-1626.4
31
0
0
LINE
8
PARTS
10
8907.599999999999
20
-1626.4
30
0
11
8907.599999999999
21
-1126.4
31
0
0
LINE
8
PARTS
10
8907.599999999999
20
-1126.4
30
0
11
8807.599999999999
21
-1126.4
31
0
0
LINE
8
PARTS
10
8807.599999999999
20
-1126.4
30
0
11
8807.599999999999
21
-1626.4
31
0
0
TEXT
8
LABELS
10
8831.599999999999
20
-1174.4
30
0
40
20
1
drawer-side-33*
7
STANDARD
0
TEXT
8
LABELS
10
8831.599999999999
20
-1206.4
30
0
40
20
1
500x100
7
STANDARD
0
LINE
8
SHEETS
10
9300
20
-2070
30
0
11
12100
21
-2070
31
0
0
LINE
8
SHEETS
10
12100
20
-2070
30
0
11
12100
21
0
31
0
0
LINE
8
SHEETS
10
12100
20
0
30
0
11
9300
21
0
31
0
0
LINE
8
SHEETS
10
9300
20
0
30
0
11
9300
21
-2070
31
0
0
TEXT
8
LABELS
10
9300
20
60
30
0
40
90
1
SHEET 4  2800x2070
7
STANDARD
0
LINE
8
PARTS
10
9300
20
-560
30
0
11
10017
21
-560
31
0
0
LINE
8
PARTS
10
10017
20
-560
30
0
11
10017
21
0
31
0
0
LINE
8
PARTS
10
10017
20
0
30
0
11
9300
21
0
31
0
0
LINE
8
PARTS
10
9300
20
0
30
0
11
9300
21
-560
31
0
0
TEXT
8
LABELS
10
9324
20
-88
30
0
40
60
1
side-6
7
STANDARD
0
TEXT
8
LABELS
10
9324
20
-160
30
0
40
60
1
717x560
7
STANDARD
0
LINE
8
PARTS
10
9300
20
-1123.2
30
0
11
10017
21
-1123.2
31
0
0
LINE
8
PARTS
10
10017
20
-1123.2
30
0
11
10017
21
-563.2
31
0
0
LINE
8
PARTS
10
10017
20
-563.2
30
0
11
9300
21
-563.2
31
0
0
LINE
8
PARTS
10
9300
20
-563.2
30
0
11
9300
21
-1123.2
31
0
0
TEXT
8
LABELS
10
9324
20
-651.2
30
0
40
60
1
side-3
7
STANDARD
0
TEXT
8
LABELS
10
9324
20
-723.2
30
0
40
60
1
717x560
7
STANDARD
0
LINE
8
PARTS
10
9300
20
-1686.4
30
0
11
10017
21
-1686.4
31
0
0
LINE
8
PARTS
10
10017
20
-1686.4
30
0
11
10017
21
-1126.4
31
0
0
LINE
8
PARTS
10
10017
20
-1126.4
30
0
11
9300
21
-1126.4
31
0
0
LINE
8
PARTS
10
9300
20
-1126.4
30
0
11
9300
21
-1686.4
31
0
0
TEXT
8
LABELS
10
9324
20
-1214.4
30
0
40
60
1
side-3
7
STANDARD
0
TEXT
8
LABELS
10
9324
20
-1286.4
30
0
40
60
1
717x560
7
STANDARD
0
LINE
8
PARTS
10
10020.2
20
-560
30
0
11
10722.2
21
-560
31
0
0
LINE
8
PARTS
10
10722.2
20
-560
30
0
11
10722.2
21
0
31
0
0
LINE
8
PARTS
10
10722.2
20
0
30
0
11
10020.2
21
0
31
0
0
LINE
8
PARTS
10
10020.2
20
0
30
0
11
10020.2
21
-560
31
0
0
TEXT
8
LABELS
10
10044.2
20
-88
30
0
40
60
1
side-7
7
STANDARD
0
TEXT
8
LABELS
10
10044.2
20
-160
30
0
40
60
1
702x560
7
STANDARD
0
LINE
8
PARTS
10
10725.4
20
-560
30
0
11
11427.4
21
-560
31
0
0
LINE
8
PARTS
10
11427.4
20
-560
30
0
11
11427.4
21
0
31
0
0
LINE
8
PARTS
10
11427.4
20
0
30
0
11
10725.4
21
0
31
0
0
LINE
8
PARTS
10
10725.4
20
0
30
0
11
10725.4
21
-560
31
0
0
TEXT
8
LABELS
10
10749.4
20
-88
30
0
40
60
1
side-8
7
STANDARD
0
TEXT
8
LABELS
10
10749.4
20
-160
30
0
40
60
1
702x560
7
STANDARD
0
LINE
8
PARTS
10
10020.2
20
-1123.2
30
0
11
10722.2
21
-1123.2
31
0
0
LINE
8
PARTS
10
10722.2
20
-1123.2
30
0
11
10722.2
21
-563.2
31
0
0
LINE
8
PARTS
10
10722.2
20
-563.2
30
0
11
10020.2
21
-563.2
31
0
0
LINE
8
PARTS
10
10020.2
20
-563.2
30
0
11
10020.2
21
-1123.2
31
0
0
TEXT
8
LABELS
10
10044.2
20
-651.2
30
0
40
60
1
side-9
7
STANDARD
0
TEXT
8
LABELS
10
10044.2
20
-723.2
30
0
40
60
1
702x560
7
STANDARD
0
LINE
8
PARTS
10
10020.2
20
-1686.4
30
0
11
10722.2
21
-1686.4
31
0
0
LINE
8
PARTS
10
10722.2
20
-1686.4
30
0
11
10722.2
21
-1126.4
31
0
0
LINE
8
PARTS
10
10722.2
20
-1126.4
30
0
11
10020.2
21
-1126.4
31
0
0
LINE
8
PARTS
10
10020.2
20
-1126.4
30
0
11
10020.2
21
-1686.4
31
0
0
TEXT
8
LABELS
10
10044.2
20
-1214.4
30
0
40
60
1
side-5
7
STANDARD
0
TEXT
8
LABELS
10
10044.2
20
-1286.4
30
0
40
60
1
702x560
7
STANDARD
0
LINE
8
PARTS
10
10725.4
20
-1123.2
30
0
11
11427.4
21
-1123.2
31
0
0
LINE
8
PARTS
10
11427.4
20
-1123.2
30
0
11
11427.4
21
-563.2
31
0
0
LINE
8
PARTS
10
11427.4
20
-563.2
30
0
11
10725.4
21
-563.2
31
0
0
LINE
8
PARTS
10
10725.4
20
-563.2
30
0
11
10725.4
21
-1123.2
31
0
0
TEXT
8
LABELS
10
10749.4
20
-651.2
30
0
40
60
1
side-6
7
STANDARD
0
TEXT
8
LABELS
10
10749.4
20
-723.2
30
0
40
60
1
702x560
7
STANDARD
0
LINE
8
PARTS
10
10725.4
20
-1686.4
30
0
11
11427.4
21
-1686.4
31
0
0
LINE
8
PARTS
10
11427.4
20
-1686.4
30
0
11
11427.4
21
-1126.4
31
0
0
LINE
8
PARTS
10
11427.4
20
-1126.4
30
0
11
10725.4
21
-1126.4
31
0
0
LINE
8
PARTS
10
10725.4
20
-1126.4
30
0
11
10725.4
21
-1686.4
31
0
0
TEXT
8
LABELS
10
10749.4
20
-1214.4
30
0
40
60
1
side-5
7
STANDARD
0
TEXT
8
LABELS
10
10749.4
20
-1286.4
30
0
40
60
1
702x560
7
STANDARD
0
LINE
8
PARTS
10
11430.6
20
-1843.4
30
0
11
11877.6
21
-1843.4
31
0
0
LINE
8
PARTS
10
11877.6
20
-1843.4
30
0
11
11877.6
21
-1126.4
31
0
0
LINE
8
PARTS
10
11877.6
20
-1126.4
30
0
11
11430.6
21
-1126.4
31
0
0
LINE
8
PARTS
10
11430.6
20
-1126.4
30
0
11
11430.6
21
-1843.4
31
0
0
TEXT
8
LABELS
10
11454.6
20
-1214.4
30
0
40
60
1
front-19*
7
STANDARD
0
TEXT
8
LABELS
10
11454.6
20
-1286.4
30
0
40
60
1
717x447
7
STANDARD
0
LINE
8
PARTS
10
10020.2
20
-2046.6000000000001
30
0
11
10617.2
21
-2046.6000000000001
31
0
0
LINE
8
PARTS
10
10617.2
20
-2046.6000000000001
30
0
11
10617.2
21
-1689.6000000000001
31
0
0
LINE
8
PARTS
10
10617.2
20
-1689.6000000000001
30
0
11
10020.2
21
-1689.6000000000001
31
0
0
LINE
8
PARTS
10
10020.2
20
-1689.6000000000001
30
0
11
10020.2
21
-2046.6000000000001
31
0
0
TEXT
8
LABELS
10
10044.2
20
-1777.6000000000001
30
0
40
60
1
front-14*
7
STANDARD
0
TEXT
8
LABELS
10
10044.2
20
-1849.6000000000001
30
0
40
60
1
357x597
7
STANDARD
0
LINE
8
PARTS
10
11430.6
20
-1946.6000000000001
30
0
11
11930.6
21
-1946.6000000000001
31
0
0
LINE
8
PARTS
10
11930.6
20
-1946.6000000000001
30
0
11
11930.6
21
-1846.6000000000001
31
0
0
LINE
8
PARTS
10
11930.6
20
-1846.6000000000001
30
0
11
11430.6
21
-1846.6000000000001
31
0
0
LINE
8
PARTS
10
11430.6
20
-1846.6000000000001
30
0
11
11430.6
21
-1946.6000000000001
31
0
0
TEXT
8
LABELS
10
11454.6
20
-1894.6000000000001
30
0
40
20
1
drawer-side-34
7
STANDARD
0
TEXT
8
LABELS
10
11454.6
20
-1926.6000000000001
30
0
40
20
1
500x100
7
STANDARD
0
LINE
8
PARTS
10
11430.6
20
-2049.8
30
0
11
11930.6
21
-2049.8
31
0
0
LINE
8
PARTS
10
11930.6
20
-2049.8
30
0
11
11930.6
21
-1949.8000000000002
31
0
0
LINE
8
PARTS
10
11930.6
20
-1949.8000000000002
30
0
11
11430.6
21
-1949.8000000000002
31
0
0
LINE
8
PARTS
10
11430.6
20
-1949.8000000000002
30
0
11
11430.6
21
-2049.8
31
0
0
TEXT
8
LABELS
10
11454.6
20
-1997.8000000000002
30
0
40
20
1
drawer-side-38
7
STANDARD
0
TEXT
8
LABELS
10
11454.6
20
-2029.8000000000002
30
0
40
20
1
500x100
7
STANDARD
0
LINE
8
PARTS
10
11880.8
20
-1626.4
30
0
11
11980.8
21
-1626.4
31
0
0
LINE
8
PARTS
10
11980.8
20
-1626.4
30
0
11
11980.8
21
-1126.4
31
0
0
LINE
8
PARTS
10
11980.8
20
-1126.4
30
0
11
11880.8
21
-1126.4
31
0
0
LINE
8
PARTS
10
11880.8
20
-1126.4
30
0
11
11880.8
21
-1626.4
31
0
0
TEXT
8
LABELS
10
11904.8
20
-1174.4
30
0
40
20
1
drawer-side-39*
7
STANDARD
0
TEXT
8
LABELS
10
11904.8
20
-1206.4
30
0
40
20
1
500x100
7
STANDARD
0
LINE
8
PARTS
10
11984
20
-1626.4
30
0
11
12084
21
-1626.4
31
0
0
LINE
8
PARTS
10
12084
20
-1626.4
30
0
11
12084
21
-1126.4
31
0
0
LINE
8
PARTS
10
12084
20
-1126.4
30
0
11
11984
21
-1126.4
31
0
0
LINE
8
PARTS
10
11984
20
-1126.4
30
0
11
11984
21
-1626.4
31
0
0
TEXT
8
LABELS
10
12008
20
-1174.4
30
0
40
20
1
drawer-side-10*
7
STANDARD
0
TEXT
8
LABELS
10
12008
20
-1206.4
30
0
40
20
1
500x100
7
STANDARD
0
LINE
8
PARTS
10
10725.4
20
-1789.6000000000001
30
0
11
11225.4
21
-1789.6000000000001
31
0
0
LINE
8
PARTS
10
11225.4
20
-1789.6000000000001
30
0
11
11225.4
21
-1689.6000000000001
31
0
0
LINE
8
PARTS
10
11225.4
20
-1689.6000000000001
30
0
11
10725.4
21
-1689.6000000000001
31
0
0
LINE
8
PARTS
10
10725.4
20
-1689.6000000000001
30
0
11
10725.4
21
-1789.6000000000001
31
0
0
TEXT
8
LABELS
10
10749.4
20
-1737.6000000000001
30
0
40
20
1
drawer-side-11
7
STANDARD
0
TEXT
8
LABELS
10
10749.4
20
-1769.6000000000001
30
0
40
20
1
500x100
7
STANDARD
0
LINE
8
PARTS
10
10725.4
20
-1892.8000000000002
30
0
11
11225.4
21
-1892.8000000000002
31
0
0
LINE
8
PARTS
10
11225.4
20
-1892.8000000000002
30
0
11
11225.4
21
-1792.8000000000002
31
0
0
LINE
8
PARTS
10
11225.4
20
-1792.8000000000002
30
0
11
10725.4
21
-1792.8000000000002
31
0
0
LINE
8
PARTS
10
10725.4
20
-1792.8000000000002
30
0
11
10725.4
21
-1892.8000000000002
31
0
0
TEXT
8
LABELS
10
10749.4
20
-1840.8000000000002
30
0
40
20
1
drawer-side-15
7
STANDARD
0
TEXT
8
LABELS
10
10749.4
20
-1872.8000000000002
30
0
40
20
1
500x100
7
STANDARD
0
LINE
8
PARTS
10
10725.4
20
-1996.0000000000002
30
0
11
11225.4
21
-1996.0000000000002
31
0
0
LINE
8
PARTS
10
11225.4
20
-1996.0000000000002
30
0
11
11225.4
21
-1896.0000000000002
31
0
0
LINE
8
PARTS
10
11225.4
20
-1896.0000000000002
30
0
11
10725.4
21
-1896.0000000000002
31
0
0
LINE
8
PARTS
10
10725.4
20
-1896.0000000000002
30
0
11
10725.4
21
-1996.0000000000002
31
0
0
TEXT
8
LABELS
10
10749.4
20
-1944.0000000000002
30
0
40
20
1
drawer-side-16
7
STANDARD
0
TEXT
8
LABELS
10
10749.4
20
-1976.0000000000002
30
0
40
20
1
500x100
7
STANDARD
0
LINE
8
PARTS
10
9300
20
-1789.6000000000001
30
0
11
9800
21
-1789.6000000000001
31
0
0
LINE
8
PARTS
10
9800
20
-1789.6000000000001
30
0
11
9800
21
-1689.6000000000001
31
0
0
LINE
8
PARTS
10
9800
20
-1689.6000000000001
30
0
11
9300
21
-1689.6000000000001
31
0
0
LINE
8
PARTS
10
9300
20
-1689.6000000000001
30
0
11
9300
21
-1789.6000000000001
31
0
0
TEXT
8
LABELS
10
9324
20
-1737.6000000000001
30
0
40
20
1
drawer-side-9
7
STANDARD
0
TEXT
8
LABELS
10
9324
20
-1769.6000000000001
30
0
40
20
1
500x100
7
STANDARD
0
LINE
8
PARTS
10
9300
20
-1892.8000000000002
30
0
11
9800
21
-1892.8000000000002
31
0
0
LINE
8
PARTS
10
9800
20
-1892.8000000000002
30
0
11
9800
21
-1792.8000000000002
31
0
0
LINE
8
PARTS
10
9800
20
-1792.8000000000002
30
0
11
9300
21
-1792.8000000000002
31
0
0
LINE
8
PARTS
10
9300
20
-1792.8000000000002
30
0
11
9300
21
-1892.8000000000002
31
0
0
TEXT
8
LABELS
10
9324
20
-1840.8000000000002
30
0
40
20
1
drawer-side-10
7
STANDARD
0
TEXT
8
LABELS
10
9324
20
-1872.8000000000002
30
0
40
20
1
500x100
7
STANDARD
0
LINE
8
PARTS
10
9300
20
-1996.0000000000002
30
0
11
9800
21
-1996.0000000000002
31
0
0
LINE
8
PARTS
10
9800
20
-1996.0000000000002
30
0
11
9800
21
-1896.0000000000002
31
0
0
LINE
8
PARTS
10
9800
20
-1896.0000000000002
30
0
11
9300
21
-1896.0000000000002
31
0
0
LINE
8
PARTS
10
9300
20
-1896.0000000000002
30
0
11
9300
21
-1996.0000000000002
31
0
0
TEXT
8
LABELS
10
9324
20
-1944.0000000000002
30
0
40
20
1
drawer-side-14
7
STANDARD
0
TEXT
8
LABELS
10
9324
20
-1976.0000000000002
30
0
40
20
1
500x100
7
STANDARD
0
LINE
8
PARTS
10
11430.6
20
-100
30
0
11
11930.6
21
-100
31
0
0
LINE
8
PARTS
10
11930.6
20
-100
30
0
11
11930.6
21
0
31
0
0
LINE
8
PARTS
10
11930.6
20
0
30
0
11
11430.6
21
0
31
0
0
LINE
8
PARTS
10
11430.6
20
0
30
0
11
11430.6
21
-100
31
0
0
TEXT
8
LABELS
10
11454.6
20
-48
30
0
40
20
1
drawer-side-15
7
STANDARD
0
TEXT
8
LABELS
10
11454.6
20
-80
30
0
40
20
1
500x100
7
STANDARD
0
LINE
8
SHEETS
10
12400
20
-2070
30
0
11
15200
21
-2070
31
0
0
LINE
8
SHEETS
10
15200
20
-2070
30
0
11
15200
21
0
31
0
0
LINE
8
SHEETS
10
15200
20
0
30
0
11
12400
21
0
31
0
0
LINE
8
SHEETS
10
12400
20
0
30
0
11
12400
21
-2070
31
0
0
TEXT
8
LABELS
10
12400
20
60
30
0
40
90
1
SHEET 5  2800x2070
7
STANDARD
0
LINE
8
PARTS
10
12400
20
-447
30
0
11
13117
21
-447
31
0
0
LINE
8
PARTS
10
13117
20
-447
30
0
11
13117
21
0
31
0
0
LINE
8
PARTS
10
13117
20
0
30
0
11
12400
21
0
31
0
0
LINE
8
PARTS
10
12400
20
0
30
0
11
12400
21
-447
31
0
0
TEXT
8
LABELS
10
12424
20
-88
30
0
40
60
1
front-20
7
STANDARD
0
TEXT
8
LABELS
10
12424
20
-160
30
0
40
60
1
717x447
7
STANDARD
0
LINE
8
PARTS
10
12400
20
-1347.2
30
0
11
12757
21
-1347.2
31
0
0
LINE
8
PARTS
10
12757
20
-1347.2
30
0
11
12757
21
-450.20000000000005
31
0
0
LINE
8
PARTS
10
12757
20
-450.20000000000005
30
0
11
12400
21
-450.20000000000005
31
0
0
LINE
8
PARTS
10
12400
20
-450.20000000000005
30
0
11
12400
21
-1347.2
31
0
0
TEXT
8
LABELS
10
12424
20
-538.2
30
0
40
60
1
front-37
7
STANDARD
0
TEXT
8
LABELS
10
12424
20
-610.2
30
0
40
60
1
357x897
7
STANDARD
0
LINE
8
PARTS
10
12760.2
20
-1347.2
30
0
11
13117.2
21
-1347.2
31
0
0
LINE
8
PARTS
10
13117.2
20
-1347.2
30
0
11
13117.2
21
-450.20000000000005
31
0
0
LINE
8
PARTS
10
13117.2
20
-450.20000000000005
30
0
11
12760.2
21
-450.20000000000005
31
0
0
LINE
8
PARTS
10
12760.2
20
-450.20000000000005
30
0
11
12760.2
21
-1347.2
31
0
0
TEXT
8
LABELS
10
12784.2
20
-538.2
30
0
40
60
1
front-8
7
STANDARD
0
TEXT
8
LABELS
10
12784.2
20
-610.2
30
0
40
60
1
357x897
7
STANDARD
0
LINE
8
PARTS
10
13120.2
20
-897
30
0
11
13477.2
21
-897
31
0
0
LINE
8
PARTS
10
13477.2
20
-897
30
0
11
13477.2
21
0
31
0
0
LINE
8
PARTS
10
13477.2
20
0
30
0
11
13120.2
21
0
31
0
0
LINE
8
PARTS
10
13120.2
20
0
30
0
11
13120.2
21
-897
31
0
0
TEXT
8
LABELS
10
13144.2
20
-88
30
0
40
60
1
front-13
7
STANDARD
0
TEXT
8
LABELS
10
13144.2
20
-160
30
0
40
60
1
357x897
7
STANDARD
0
LINE
8
PARTS
10
13120.2
20
-1759.2
30
0
11
13220.2
21
-1759.2
31
0
0
LINE
8
PARTS
10
13220.2
20
-1759.2
30
0
11
13220.2
21
-900.2
31
0
0
LINE
8
PARTS
10
13220.2
20
-900.2
30
0
11
13120.2
21
-900.2
31
0
0
LINE
8
PARTS
10
13120.2
20
-900.2
30
0
11
13120.2
21
-1759.2
31
0
0
TEXT
8
LABELS
10
13144.2
20
-948.2
30
0
40
20
1
drawer-back-16*
7
STANDARD
0
TEXT
8
LABELS
10
13144.2
20
-980.2
30
0
40
20
1
859x100
7
STANDARD
0
LINE
8
SHEETS
10
15500
20
-2070
30
0
11
18300
21
-2070
31
0
0
LINE
8
SHEETS
10
18300
20
-2070
30
0
11
18300
21
0
31
0
0
LINE
8
SHEETS
10
18300
20
0
30
0
11
15500
21
0
31
0
0
LINE
8
SHEETS
10
15500
20
0
30
0
11
15500
21
-2070
31
0
0
TEXT
8
LABELS
10
15500
20
60
30
0
40
90
1
SHEET 6  2800x2070
7
STANDARD
0
LINE
8
PARTS
10
15500
20
-900
30
0
11
16220
21
-900
31
0
0
LINE
8
PARTS
10
16220
20
-900
30
0
11
16220
21
0
31
0
0
LINE
8
PARTS
10
16220
20
0
30
0
11
15500
21
0
31
0
0
LINE
8
PARTS
10
15500
20
0
30
0
11
15500
21
-900
31
0
0
TEXT
8
LABELS
10
15524
20
-88
30
0
40
60
1
back-31
7
STANDARD
0
TEXT
8
LABELS
10
15524
20
-160
30
0
40
60
1
720x900
7
STANDARD
0
LINE
8
PARTS
10
15500
20
-1803.2
30
0
11
16220
21
-1803.2
31
0
0
LINE
8
PARTS
10
16220
20
-1803.2
30
0
11
16220
21
-903.2
31
0
0
LINE
8
PARTS
10
16220
20
-903.2
30
0
11
15500
21
-903.2
31
0
0
LINE
8
PARTS
10
15500
20
-903.2
30
0
11
15500
21
-1803.2
31
0
0
TEXT
8
LABELS
10
15524
20
-991.2
30
0
40
60
1
back-42
7
STANDARD
0
TEXT
8
LABELS
10
15524
20
-1063.2
30
0
40
60
1
720x900
7
STANDARD
0
LINE
8
PARTS
10
16223.2
20
-900
30
0
11
16943.2
21
-900
31
0
0
LINE
8
PARTS
10
16943.2
20
-900
30
0
11
16943.2
21
0
31
0
0
LINE
8
PARTS
10
16943.2
20
0
30
0
11
16223.2
21
0
31
0
0
LINE
8
PARTS
10
16223.2
20
0
30
0
11
16223.2
21
-900
31
0
0
TEXT
8
LABELS
10
16247.2
20
-88
30
0
40
60
1
back-18
7
STANDARD
0
TEXT
8
LABELS
10
16247.2
20
-160
30
0
40
60
1
720x900
7
STANDARD
0
LINE
8
PARTS
10
16223.2
20
-1803.2
30
0
11
16943.2
21
-1803.2
31
0
0
LINE
8
PARTS
10
16943.2
20
-1803.2
30
0
11
16943.2
21
-903.2
31
0
0
LINE
8
PARTS
10
16943.2
20
-903.2
30
0
11
16223.2
21
-903.2
31
0
0
LINE
8
PARTS
10
16223.2
20
-903.2
30
0
11
16223.2
21
-1803.2
31
0
0
TEXT
8
LABELS
10
16247.2
20
-991.2
30
0
40
60
1
back-21
7
STANDARD
0
TEXT
8
LABELS
10
16247.2
20
-1063.2
30
0
40
60
1
720x900
7
STANDARD
0
LINE
8
PARTS
10
16946.4
20
-600
30
0
11
17666.4
21
-600
31
0
0
LINE
8
PARTS
10
17666.4
20
-600
30
0
11
17666.4
21
0
31
0
0
LINE
8
PARTS
10
17666.4
20
0
30
0
11
16946.4
21
0
31
0
0
LINE
8
PARTS
10
16946.4
20
0
30
0
11
16946.4
21
-600
31
0
0
TEXT
8
LABELS
10
16970.4
20
-88
30
0
40
60
1
back-15
7
STANDARD
0
TEXT
8
LABELS
10
16970.4
20
-160
30
0
40
60
1
720x600
7
STANDARD
0
LINE
8
PARTS
10
16946.4
20
-1203.2
30
0
11
17666.4
21
-1203.2
31
0
0
LINE
8
PARTS
10
17666.4
20
-1203.2
30
0
11
17666.4
21
-603.2
31
0
0
LINE
8
PARTS
10
17666.4
20
-603.2
30
0
11
16946.4
21
-603.2
31
0
0
LINE
8
PARTS
10
16946.4
20
-603.2
30
0
11
16946.4
21
-1203.2
31
0
0
TEXT
8
LABELS
10
16970.4
20
-691.2
30
0
40
60
1
back-19
7
STANDARD
0
TEXT
8
LABELS
10
16970.4
20
-763.2
30
0
40
60
1
720x600
7
STANDARD
0
LINE
8
PARTS
10
16946.4
20
-1806.4
30
0
11
17666.4
21
-1806.4
31
0
0
LINE
8
PARTS
10
17666.4
20
-1806.4
30
0
11
17666.4
21
-1206.4
31
0
0
LINE
8
PARTS
10
17666.4
20
-1206.4
30
0
11
16946.4
21
-1206.4
31
0
0
LINE
8
PARTS
10
16946.4
20
-1206.4
30
0
11
16946.4
21
-1806.4
31
0
0
TEXT
8
LABELS
10
16970.4
20
-1294.4
30
0
40
60
1
back-22
7
STANDARD
0
TEXT
8
LABELS
10
16970.4
20
-1366.4
30
0
40
60
1
720x600
7
STANDARD
0
LINE
8
PARTS
10
17669.6
20
-2049.4
30
0
11
18169.6
21
-2049.4
31
0
0
LINE
8
PARTS
10
18169.6
20
-2049.4
30
0
11
18169.6
21
-1206.4
31
0
0
LINE
8
PARTS
10
18169.6
20
-1206.4
30
0
11
17669.6
21
-1206.4
31
0
0
LINE
8
PARTS
10
17669.6
20
-1206.4
30
0
11
17669.6
21
-2049.4
31
0
0
TEXT
8
LABELS
10
17693.6
20
-1280.7709677419357
30
0
40
46.37096774193549
1
drawer-bottom-20
7
STANDARD
0
TEXT
8
LABELS
10
17693.6
20
-1339.141935483871
30
0
40
46.37096774193549
1
500x843
7
STANDARD
0
LINE
8
PARTS
10
17669.6
20
-543
30
0
11
18169.6
21
-543
31
0
0
LINE
8
PARTS
10
18169.6
20
-543
30
0
11
18169.6
21
0
31
0
0
LINE
8
PARTS
10
18169.6
20
0
30
0
11
17669.6
21
0
31
0
0
LINE
8
PARTS
10
17669.6
20
0
30
0
11
17669.6
21
-543
31
0
0
TEXT
8
LABELS
10
17693.6
20
-74.37096774193549
30
0
40
46.37096774193549
1
drawer-bottom-13
7
STANDARD
0
TEXT
8
LABELS
10
17693.6
20
-132.74193548387098
30
0
40
46.37096774193549
1
500x543
7
STANDARD
0
LINE
8
PARTS
10
17669.6
20
-1146.2
30
0
11
18169.6
21
-1146.2
31
0
0
LINE
8
PARTS
10
18169.6
20
-1146.2
30
0
11
18169.6
21
-603.2
31
0
0
LINE
8
PARTS
10
18169.6
20
-603.2
30
0
11
17669.6
21
-603.2
31
0
0
LINE
8
PARTS
10
17669.6
20
-603.2
30
0
11
17669.6
21
-1146.2
31
0
0
TEXT
8
LABELS
10
17693.6
20
-677.5709677419355
30
0
40
46.37096774193549
1
drawer-bottom-18
7
STANDARD
0
TEXT
8
LABELS
10
17693.6
20
-735.941935483871
30
0
40
46.37096774193549
1
500x543
7
STANDARD
0
LINE
8
SHEETS
10
18600
20
-2070
30
0
11
21400
21
-2070
31
0
0
LINE
8
SHEETS
10
21400
20
-2070
30
0
11
21400
21
0
31
0
0
LINE
8
SHEETS
10
21400
20
0
30
0
11
18600
21
0
31
0
0
LINE
8
SHEETS
10
18600
20
0
30
0
11
18600
21
-2070
31
0
0
TEXT
8
LABELS
10
18600
20
60
30
0
40
90
1
SHEET 7  2800x2070
7
STANDARD
0
LINE
8
PARTS
10
18600
20
-843
30
0
11
19100
21
-843
31
0
0
LINE
8
PARTS
10
19100
20
-843
30
0
11
19100
21
0
31
0
0
LINE
8
PARTS
10
19100
20
0
30
0
11
18600
21
0
31
0
0
LINE
8
PARTS
10
18600
20
0
30
0
11
18600
21
-843
31
0
0
TEXT
8
LABELS
10
18624
20
-74.37096774193549
30
0
40
46.37096774193549
1
drawer-bottom-25
7
STANDARD
0
TEXT
8
LABELS
10
18624
20
-132.74193548387098
30
0
40
46.37096774193549
1
500x843
7
STANDARD
0
LINE
8
PARTS
10
18600
20
-1689.2
30
0
11
19100
21
-1689.2
31
0
0
LINE
8
PARTS
10
19100
20
-1689.2
30
0
11
19100
21
-846.2
31
0
0
LINE
8
PARTS
10
19100
20
-846.2
30
0
11
18600
21
-846.2
31
0
0
LINE
8
PARTS
10
18600
20
-846.2
30
0
11
18600
21
-1689.2
31
0
0
TEXT
8
LABELS
10
18624
20
-920.5709677419355
30
0
40
46.37096774193549
1
drawer-bottom-30
7
STANDARD
0
TEXT
8
LABELS
10
18624
20
-978.941935483871
30
0
40
46.37096774193549
1
500x843
7
STANDARD
0
LINE
8
PARTS
10
19103.2
20
-843
30
0
11
19603.2
21
-843
31
0
0
LINE
8
PARTS
10
19603.2
20
-843
30
0
11
19603.2
21
0
31
0
0
LINE
8
PARTS
10
19603.2
20
0
30
0
11
19103.2
21
0
31
0
0
LINE
8
PARTS
10
19103.2
20
0
30
0
11
19103.2
21
-843
31
0
0
TEXT
8
LABELS
10
19127.2
20
-74.37096774193549
30
0
40
46.37096774193549
1
drawer-bottom-36
7
STANDARD
0
TEXT
8
LABELS
10
19127.2
20
-132.74193548387098
30
0
40
46.37096774193549
1
500x843
7
STANDARD
0
LINE
8
PARTS
10
19103.2
20
-1689.2
30
0
11
19603.2
21
-1689.2
31
0
0
LINE
8
PARTS
10
19603.2
20
-1689.2
30
0
11
19603.2
21
-846.2
31
0
0
LINE
8
PARTS
10
19603.2
20
-846.2
30
0
11
19103.2
21
-846.2
31
0
0
LINE
8
PARTS
10
19103.2
20
-846.2
30
0
11
19103.2
21
-1689.2
31
0
0
TEXT
8
LABELS
10
19127.2
20
-920.5709677419355
30
0
40
46.37096774193549
1
drawer-bottom-41
7
STANDARD
0
TEXT
8
LABELS
10
19127.2
20
-978.941935483871
30
0
40
46.37096774193549
1
500x843
7
STANDARD
0
LINE
8
PARTS
10
19606.4
20
-843
30
0
11
20106.4
21
-843
31
0
0
LINE
8
PARTS
10
20106.4
20
-843
30
0
11
20106.4
21
0
31
0
0
LINE
8
PARTS
10
20106.4
20
0
30
0
11
19606.4
21
0
31
0
0
LINE
8
PARTS
10
19606.4
20
0
30
0
11
19606.4
21
-843
31
0
0
TEXT
8
LABELS
10
19630.4
20
-74.37096774193549
30
0
40
46.37096774193549
1
drawer-bottom-12
7
STANDARD
0
TEXT
8
LABELS
10
19630.4
20
-132.74193548387098
30
0
40
46.37096774193549
1
500x843
7
STANDARD
0
LINE
8
PARTS
10
19606.4
20
-1689.2
30
0
11
20106.4
21
-1689.2
31
0
0
LINE
8
PARTS
10
20106.4
20
-1689.2
30
0
11
20106.4
21
-846.2
31
0
0
LINE
8
PARTS
10
20106.4
20
-846.2
30
0
11
19606.4
21
-846.2
31
0
0
LINE
8
PARTS
10
19606.4
20
-846.2
30
0
11
19606.4
21
-1689.2
31
0
0
TEXT
8
LABELS
10
19630.4
20
-920.5709677419355
30
0
40
46.37096774193549
1
drawer-bottom-17
7
STANDARD
0
TEXT
8
LABELS
10
19630.4
20
-978.941935483871
30
0
40
46.37096774193549
1
500x843
7
STANDARD
0
ENDSEC
0
EOF