0
SECTION
2
HEADER
9
$ACADVER
1
AC1009
9
$INSUNITS
70
4
0
ENDSEC
0
SECTION
2
TABLES
0
TABLE
2
STYLE
70
1
0
STYLE
2
STANDARD
70
0
40
0
41
1
50
0
71
0
42
2.5
3
txt
4

0
ENDTAB
0
TABLE
2
LAYER
70
3
0
LAYER
2
SHEETS
70
0
62
5
6
CONTINUOUS
0
LAYER
2
PARTS
70
0
62
7
6
CONTINUOUS
0
LAYER
2
LABELS
70
0
62
3
6
CONTINUOUS
0
ENDTAB
0
ENDSEC
0
SECTION
2
ENTITIES
0
LINE
8
SHEETS
10
0
20
-2070
30
0
11
2800
21
-2070
31
0
0
LINE
8
SHEETS
10
2800
20
-2070
30
0
11
2800
21
0
31
0
0
LINE
8
SHEETS
10
2800
20
0
30
0
11
0
21
0
31
0
0
LINE
8
SHEETS
10
0
20
0
30
0
11
0
21
-2070
31
0
0
TEXT
8
LABELS
10
0
20
60
30
0
40
90
1
SHEET 1  2800x2070
7
STANDARD
0
LINE
8
PARTS
10
0
20
-600
30
0
11
2005
21
-600
31
0
0
LINE
8
PARTS
10
2005
20
-600
30
0
11
2005
21
0
31
0
0
LINE
8
PARTS
10
2005
20
0
30
0
11
0
21
0
31
0
0
LINE
8
PARTS
10
0
20
0
30
0
11
0
21
-600
31
0
0
TEXT
8
LABELS
10
24
20
-88
30
0
40
60
1
worktop-11
7
STANDARD
0
TEXT
8
LABELS
10
24
20
-160
30
0
40
60
1
2005x600
7
STANDARD
0
LINE
8
PARTS
10
0
20
-1163.2
30
0
11
1996
21
-1163.2
31
0
0
LINE
8
PARTS
10
1996
20
-1163.2
30
0
11
1996
21
-603.2
31
0
0
LINE
8
PARTS
10
1996
20
-603.2
30
0
11
0
21
-603.2
31
0
0
LINE
8
PARTS
10
0
20
-603.2
30
0
11
0
21
-1163.2
31
0
0
TEXT
8
LABELS
10
24
20
-691.2
30
0
40
60
1
plinth-3
7
STANDARD
0
TEXT
8
LABELS
10
24
20
-763.2
30
0
40
60
1
1996x560
7
STANDARD
0
LINE
8
PARTS
10
0
20
-1726.4
30
0
11
1989
21
-1726.4
31
0
0
LINE
8
PARTS
10
1989
20
-1726.4
30
0
11
1989
21
-1166.4
31
0
0
LINE
8
PARTS
10
1989
20
-1166.4
30
0
11
0
21
-1166.4
31
0
0
LINE
8
PARTS
10
0
20
-1166.4
30
0
11
0
21
-1726.4
31
0
0
TEXT
8
LABELS
10
24
20
-1254.4
30
0
40
60
1
bottom-1
7
STANDARD
0
TEXT
8
LABELS
10
24
20
-1326.4
30
0
40
60
1
1989x560
7
STANDARD
0
LINE
8
PARTS
10
1992.2
20
-1863.4
30
0
11
2709.2
21
-1863.4
31
0
0
LINE
8
PARTS
10
2709.2
20
-1863.4
30
0
11
2709.2
21
-1166.4
31
0
0
LINE
8
PARTS
10
2709.2
20
-1166.4
30
0
11
1992.2
21
-1166.4
31
0
0
LINE
8
PARTS
10
1992.2
20
-1166.4
30
0
11
1992.2
21
-1863.4
31
0
0
TEXT
8
LABELS
10
2016.2
20
-1254.4
30
0
40
60
1
front-44
7
STANDARD
0
TEXT
8
LABELS
10
2016.2
20
-1326.4
30
0
40
60
1
717x697
7
STANDARD
0
LINE
8
PARTS
10
1999.2
20
-1163.2
30
0
11
2717.2
21
-1163.2
31
0
0
LINE
8
PARTS
10
2717.2
20
-1163.2
30
0
11
2717.2
21
-603.2
31
0
0
LINE
8
PARTS
10
2717.2
20
-603.2
30
0
11
1999.2
21
-603.2
31
0
0
LINE
8
PARTS
10
1999.2
20
-603.2
30
0
11
1999.2
21
-1163.2
31
0
0
TEXT
8
LABELS
10
2023.2
20
-691.2
30
0
40
60
1
side-4
7
STANDARD
0
TEXT
8
LABELS
10
2023.2
20
-763.2
30
0
40
60
1
718x560
7
STANDARD
0
LINE
8
PARTS
10
2008.2
20
-560
30
0
11
2725.2
21
-560
31
0
0
LINE
8
PARTS
10
2725.2
20
-560
30
0
11
2725.2
21
0
31
0
0
LINE
8
PARTS
10
2725.2
20
0
30
0
11
2008.2
21
0
31
0
0
LINE
8
PARTS
10
2008.2
20
0
30
0
11
2008.2
21
-560
31
0
0
TEXT
8
LABELS
10
2032.2
20
-88
30
0
40
60
1
side-5
7
STANDARD
0
TEXT
8
LABELS
10
2032.2
20
-160
30
0
40
60
1
717x560
7
STANDARD
0
LINE
8
PARTS
10
0
20
-2026.6000000000001
30
0
11
717
21
-2026.6000000000001
31
0
0
LINE
8
PARTS
10
717
20
-2026.6000000000001
30
0
11
717
21
-1729.6000000000001
31
0
0
LINE
8
PARTS
10
717
20
-1729.6000000000001
30
0
11
0
21
-1729.6000000000001
31
0
0
LINE
8
PARTS
10
0
20
-1729.6000000000001
30
0
11
0
21
-2026.6000000000001
31
0
0
TEXT
8
LABELS
10
24
20
-1817.6000000000001
30
0
40
60
1
front-20
7
STANDARD
0
TEXT
8
LABELS
10
24
20
-1889.6000000000001
30
0
40
60
1
717x297
7
STANDARD
0
LINE
8
PARTS
10
720.2
20
-2026.6000000000001
30
0
11
1437.2
21
-2026.6000000000001
31
0
0
LINE
8
PARTS
10
1437.2
20
-2026.6000000000001
30
0
11
1437.2
21
-1729.6000000000001
31
0
0
LINE
8
PARTS
10
1437.2
20
-1729.6000000000001
30
0
11
720.2
21
-1729.6000000000001
31
0
0
LINE
8
PARTS
10
720.2
20
-1729.6000000000001
30
0
11
720.2
21
-2026.6000000000001
31
0
0
TEXT
8
LABELS
10
744.2
20
-1817.6000000000001
30
0
40
60
1
front-21
7
STANDARD
0
TEXT
8
LABELS
10
744.2
20
-1889.6000000000001
30
0
40
60
1
717x297
7
STANDARD
0
LINE
8
PARTS
10
1992.2
20
-2003.6000000000001
30
0
11
2589.2
21
-2003.6000000000001
31
0
0
LINE
8
PARTS
10
2589.2
20
-2003.6000000000001
30
0
11
2589.2
21
-1866.6000000000001
31
0
0
LINE
8
PARTS
10
2589.2
20
-1866.6000000000001
30
0
11
1992.2
21
-1866.6000000000001
31
0
0
LINE
8
PARTS
10
1992.2
20
-1866.6000000000001
30
0
11
1992.2
21
-2003.6000000000001
31
0
0
TEXT
8
LABELS
10
2016.2
20
-1933.1000000000001
30
0
40
38.5
1
front-13*
7
STANDARD
0
TEXT
8
LABELS
10
2016.2
20
-1983.6000000000001
30
0
40
38.5
1
137x597
7
STANDARD
0
LINE
8
PARTS
10
1440.4
20
-1829.6000000000001
30
0
11
1940.4
21
-1829.6000000000001
31
0
0
LINE
8
PARTS
10
1940.4
20
-1829.6000000000001
30
0
11
1940.4
21
-1729.6000000000001
31
0
0
LINE
8
PARTS
10
1940.4
20
-1729.6000000000001
30
0
11
1440.4
21
-1729.6000000000001
31
0
0
LINE
8
PARTS
10
1440.4
20
-1729.6000000000001
30
0
11
1440.4
21
-1829.6000000000001
31
0
0
TEXT
8
LABELS
10
1464.4
20
-1777.6000000000001
30
0
40
20
1
drawer-side-18
7
STANDARD
0
TEXT
8
LABELS
10
1464.4
20
-1809.6000000000001
30
0
40
20
1
500x100
7
STANDARD
0
LINE
8
PARTS
10
1440.4
20
-1932.8000000000002
30
0
11
1940.4
21
-1932.8000000000002
31
0
0
LINE
8
PARTS
10
1940.4
20
-1932.8000000000002
30
0
11
1940.4
21
-1832.8000000000002
31
0
0
LINE
8
PARTS
10
1940.4
20
-1832.8000000000002
30
0
11
1440.4
21
-1832.8000000000002
31
0
0
LINE
8
PARTS
10
1440.4
20
-1832.8000000000002
30
0
11
1440.4
21
-1932.8000000000002
31
0
0
TEXT
8
LABELS
10
1464.4
20
-1880.8000000000002
30
0
40
20
1
drawer-side-19
7
STANDARD
0
TEXT
8
LABELS
10
1464.4
20
-1912.8000000000002
30
0
40
20
1
500x100
7
STANDARD
0
LINE
8
PARTS
10
1440.4
20
-2036.0000000000002
30
0
11
1940.4
21
-2036.0000000000002
31
0
0
LINE
8
PARTS
10
1940.4
20
-2036.0000000000002
30
0
11
1940.4
21
-1936.0000000000002
31
0
0
LINE
8
PARTS
10
1940.4
20
-1936.0000000000002
30
0
11
1440.4
21
-1936.0000000000002
31
0
0
LINE
8
PARTS
10
1440.4
20
-1936.0000000000002
30
0
11
1440.4
21
-2036.0000000000002
31
0
0
TEXT
8
LABELS
10
1464.4
20
-1984.0000000000002
30
0
40
20
1
drawer-side-23
7
STANDARD
0
TEXT
8
LABELS
10
1464.4
20
-2016.0000000000002
30
0
40
20
1
500x100
7
STANDARD
0
LINE
8
SHEETS
10
3100
20
-2070
30
0
11
5900
21
-2070
31
0
0
LINE
8
SHEETS
10
5900
20
-2070
30
0
11
5900
21
0
31
0
0
LINE
8
SHEETS
10
5900
20
0
30
0
11
3100
21
0
31
0
0
LINE
8
SHEETS
10
3100
20
0
30
0
11
3100
21
-2070
31
0
0
TEXT
8
LABELS
10
3100
20
60
30
0
40
90
1
SHEET 2  2800x2070
7
STANDARD
0
LINE
8
PARTS
10
3100
20
-600
30
0
11
4950
21
-600
31
0
0
LINE
8
PARTS
10
4950
20
-600
30
0
11
4950
21
0
31
0
0
LINE
8
PARTS
10
4950
20
0
30
0
11
3100
21
0
31
0
0
LINE
8
PARTS
10
3100
20
0
30
0
11
3100
21
-600
31
0
0
TEXT
8
LABELS
10
3124
20
-88
30
0
40
60
1
worktop-7
7
STANDARD
0
TEXT
8
LABELS
10
3124
20
-160
30
0
40
60
1
1850x600
7
STANDARD
0
LINE
8
PARTS
10
3100
20
-1163.2
30
0
11
4896
21
-1163.2
31
0
0
LINE
8
PARTS
10
4896
20
-1163.2
30
0
11
4896
21
-603.2
31
0
0
LINE
8
PARTS
10
4896
20
-603.2
30
0
11
3100
21
-603.2
31
0
0
LINE
8
PARTS
10
3100
20
-603.2
30
0
11
3100
21
-1163.2
31
0
0
TEXT
8
LABELS
10
3124
20
-691.2
30
0
40
60
1
plinth-2
7
STANDARD
0
TEXT
8
LABELS
10
3124
20
-763.2
30
0
40
60
1
1796x560
7
STANDARD
0
LINE
8
PARTS
10
3100
20
-1726.4
30
0
11
4881
21
-1726.4
31
0
0
LINE
8
PARTS
10
4881
20
-1726.4
30
0
11
4881
21
-1166.4
31
0
0
LINE
8
PARTS
10
4881
20
-1166.4
30
0
11
3100
21
-1166.4
31
0
0
LINE
8
PARTS
10
3100
20
-1166.4
30
0
11
3100
21
-1726.4
31
0
0
TEXT
8
LABELS
10
3124
20
-1254.4
30
0
40
60
1
bottom-1
7
STANDARD
0
TEXT
8
LABELS
10
3124
20
-1326.4
30
0
40
60
1
1781x560
7
STANDARD
0
LINE
8
PARTS
10
4953.2
20
-560
30
0
11
5670.2
21
-560
31
0
0
LINE
8
PARTS
10
5670.2
20
-560
30
0
11
5670.2
21
0
31
0
0
LINE
8
PARTS
10
5670.2
20
0
30
0
11
4953.2
21
0
31
0
0
LINE
8
PARTS
10
4953.2
20
0
30
0
11
4953.2
21
-560
31
0
0
TEXT
8
LABELS
10
4977.2
20
-88
30
0
40
60
1
side-6
7
STANDARD
0
TEXT
8
LABELS
10
4977.2
20
-160
30
0
40
60
1
717x560
7
STANDARD
0
LINE
8
PARTS
10
4899.2
20
-1163.2
30
0
11
5616.2
21
-1163.2
31
0
0
LINE
8
PARTS
10
5616.2
20
-1163.2
30
0
11
5616.2
21
-603.2
31
0
0
LINE
8
PARTS
10
5616.2
20
-603.2
30
0
11
4899.2
21
-603.2
31
0
0
LINE
8
PARTS
10
4899.2
20
-603.2
30
0
11
4899.2
21
-1163.2
31
0
0
TEXT
8
LABELS
10
4923.2
20
-691.2
30
0
40
60
1
side-3
7
STANDARD
0
TEXT
8
LABELS
10
4923.2
20
-763.2
30
0
40
60
1
717x560
7
STANDARD
0
LINE
8
PARTS
10
4899.2
20
-1726.4
30
0
11
5601.2
21
-1726.4
31
0
0
LINE
8
PARTS
10
5601.2
20
-1726.4
30
0
11
5601.2
21
-1166.4
31
0
0
LINE
8
PARTS
10
5601.2
20
-1166.4
30
0
11
4899.2
21
-1166.4
31
0
0
LINE
8
PARTS
10
4899.2
20
-1166.4
30
0
11
4899.2
21
-1726.4
31
0
0
TEXT
8
LABELS
10
4923.2
20
-1254.4
30
0
40
60
1
side-7
7
STANDARD
0
TEXT
8
LABELS
10
4923.2
20
-1326.4
30
0
40
60
1
702x560
7
STANDARD
0
LINE
8
PARTS
10
4899.2
20
-1966.6000000000001
30
0
11
5696.2
21
-1966.6000000000001
31
0
0
LINE
8
PARTS
10
5696.2
20
-1966.6000000000001
30
0
11
5696.2
21
-1729.6000000000001
31
0
0
LINE
8
PARTS
10
5696.2
20
-1729.6000000000001
30
0
11
4899.2
21
-1729.6000000000001
31
0
0
LINE
8
PARTS
10
4899.2
20
-1729.6000000000001
30
0
11
4899.2
21
-1966.6000000000001
31
0
0
TEXT
8
LABELS
10
4923.2
20
-1817.6000000000001
30
0
40
60
1
front-17*
7
STANDARD
0
TEXT
8
LABELS
10
4923.2
20
-1889.6000000000001
30
0
40
60
1
237x797
7
STANDARD
0
LINE
8
PARTS
10
3100
20
-1966.6000000000001
30
0
11
3897
21
-1966.6000000000001
31
0
0
LINE
8
PARTS
10
3897
20
-1966.6000000000001
30
0
11
3897
21
-1729.6000000000001
31
0
0
LINE
8
PARTS
10
3897
20
-1729.6000000000001
30
0
11
3100
21
-1729.6000000000001
31
0
0
LINE
8
PARTS
10
3100
20
-1729.6000000000001
30
0
11
3100
21
-1966.6000000000001
31
0
0
TEXT
8
LABELS
10
3124
20
-1817.6000000000001
30
0
40
60
1
front-22*
7
STANDARD
0
TEXT
8
LABELS
10
3124
20
-1889.6000000000001
30
0
40
60
1
237x797
7
STANDARD
0
LINE
8
PARTS
10
3900.2
20
-1966.6000000000001
30
0
11
4697.2
21
-1966.6000000000001
31
0
0
LINE
8
PARTS
10
4697.2
20
-1966.6000000000001
30
0
11
4697.2
21
-1729.6000000000001
31
0
0
LINE
8
PARTS
10
4697.2
20
-1729.6000000000001
30
0
11
3900.2
21
-1729.6000000000001
31
0
0
LINE
8
PARTS
10
3900.2
20
-1729.6000000000001
30
0
11
3900.2
21
-1966.6000000000001
31
0
0
TEXT
8
LABELS
10
3924.2
20
-1817.6000000000001
30
0
40
60
1
front-27*
7
STANDARD
0
TEXT
8
LABELS
10
3924.2
20
-1889.6000000000001
30
0
40
60
1
237x797
7
STANDARD
0
LINE
8
PARTS
10
4899.2
20
-2069.8
30
0
11
5658.2
21
-2069.8
31
0
0
LINE
8
PARTS
10
5658.2
20
-2069.8
30
0
11
5658.2
21
-1969.8000000000002
31
0
0
LINE
8
PARTS
10
5658.2
20
-1969.8000000000002
30
0
11
4899.2
21
-1969.8000000000002
31
0
0
LINE
8
PARTS
10
4899.2
20
-1969.8000000000002
30
0
11
4899.2
21
-2069.8
31
0
0
TEXT
8
LABELS
10
4923.2
20
-2017.8000000000002
30
0
40
20
1
drawer-back-20
7
STANDARD
0
TEXT
8
LABELS
10
4923.2
20
-2049.8
30
0
40
20
1
759x100
7
STANDARD
0
LINE
8
PARTS
10
3100
20
-2069.8
30
0
11
3859
21
-2069.8
31
0
0
LINE
8
PARTS
10
3859
20
-2069.8
30
0
11
3859
21
-1969.8000000000002
31
0
0
LINE
8
PARTS
10
3859
20
-1969.8000000000002
30
0
11
3100
21
-1969.8000000000002
31
0
0
LINE
8
PARTS
10
3100
20
-1969.8000000000002
30
0
11
3100
21
-2069.8
31
0
0
TEXT
8
LABELS
10
3124
20
-2017.8000000000002
30
0
40
20
1
drawer-back-25
7
STANDARD
0
TEXT
8
LABELS
10
3124
20
-2049.8
30
0
40
20
1
759x100
7
STANDARD
0
LINE
8
PARTS
10
3900.2
20
-2069.8
30
0
11
4659.2
21
-2069.8
31
0
0
LINE
8
PARTS
10
4659.2
20
-2069.8
30
0
11
4659.2
21
-1969.8000000000002
31
0
0
LINE
8
PARTS
10
4659.2
20
-1969.8000000000002
30
0
11
3900.2
21
-1969.8000000000002
31
0
0
LINE
8
PARTS
10
3900.2
20
-1969.8000000000002
30
0
11
3900.2
21
-2069.8
31
0
0
TEXT
8
LABELS
10
3924.2
20
-2017.8000000000002
30
0
40
20
1
drawer-back-30
7
STANDARD
0
TEXT
8
LABELS
10
3924.2
20
-2049.8
30
0
40
20
1
759x100
7
STANDARD
0
LINE
8
PARTS
10
5673.4
20
-559
30
0
11
5773.4
21
-559
31
0
0
LINE
8
PARTS
10
5773.4
20
-559
30
0
11
5773.4
21
0
31
0
0
LINE
8
PARTS
10
5773.4
20
0
30
0
11
5673.4
21
0
31
0
0
LINE
8
PARTS
10
5673.4
20
0
30
0
11
5673.4
21
-559
31
0
0
TEXT
8
LABELS
10
5697.4
20
-48
30
0
40
20
1
drawer-back-12*
7
STANDARD
0
TEXT
8
LABELS
10
5697.4
20
-80
30
0
40
20
1
559x100
7
STANDARD
0
LINE
8
PARTS
10
5776.599999999999
20
-559
30
0
11
5876.599999999999
21
-559
31
0
0
LINE
8
PARTS
10
5876.599999999999
20
-559
30
0
11
5876.599999999999
21
0
31
0
0
LINE
8
PARTS
10
5876.599999999999
20
0
30
0
11
5776.599999999999
21
0
31
0
0
LINE
8
PARTS
10
5776.599999999999
20
0
30
0
11
5776.599999999999
21
-559
31
0
0
TEXT
8
LABELS
10
5800.599999999999
20
-48
30
0
40
20
1
drawer-back-17*
7
STANDARD
0
TEXT
8
LABELS
10
5800.599999999999
20
-80
30
0
40
20
1
559x100
7
STANDARD
0
LINE
8
PARTS
10
5619.4
20
-1103.2
30
0
11
5719.4
21
-1103.2
31
0
0
LINE
8
PARTS
10
5719.4
20
-1103.2
30
0
11
5719.4
21
-603.2
31
0
0
LINE
8
PARTS
10
5719.4
20
-603.2
30
0
11
5619.4
21
-603.2
31
0
0
LINE
8
PARTS
10
5619.4
20
-603.2
30
0
11
5619.4
21
-1103.2
31
0
0
TEXT
8
LABELS
10
5643.4
20
-651.2
30
0
40
20
1
drawer-side-24*
7
STANDARD
0
TEXT
8
LABELS
10
5643.4
20
-683.2
30
0
40
20
1
500x100
7
STANDARD
0
LINE
8
PARTS
10
5722.599999999999
20
-1103.2
30
0
11
5822.599999999999
21
-1103.2
31
0
0
LINE
8
PARTS
10
5822.599999999999
20
-1103.2
30
0
11
5822.599999999999
21
-603.2
31
0
0
LINE
8
PARTS
10
5822.599999999999
20
-603.2
30
0
11
5722.599999999999
21
-603.2
31
0
0
LINE
8
PARTS
10
5722.599999999999
20
-603.2
30
0
11
5722.599999999999
21
-1103.2
31
0
0
TEXT
8
LABELS
10
5746.599999999999
20
-651.2
30
0
40
20
1
drawer-side-28*
7
STANDARD
0
TEXT
8
LABELS
10
5746.599999999999
20
-683.2
30
0
40
20
1
500x100
7
STANDARD
0
LINE
8
PARTS
10
5604.4
20
-1666.4
30
0
11
5704.4
21
-1666.4
31
0
0
LINE
8
PARTS
10
5704.4
20
-1666.4
30
0
11
5704.4
21
-1166.4
31
0
0
LINE
8
PARTS
10
5704.4
20
-1166.4
30
0
11
5604.4
21
-1166.4
31
0
0
LINE
8
PARTS
10
5604.4
20
-1166.4
30
0
11
5604.4
21
-1666.4
31
0
0
TEXT
8
LABELS
10
5628.4
20
-1214.4
30
0
40
20
1
drawer-side-29*
7
STANDARD
0
TEXT
8
LABELS
10
5628.4
20
-1246.4
30
0
40
20
1
500x100
7
STANDARD
0
LINE
8
PARTS
10
5707.599999999999
20
-1666.4
30
0
11
5807.599999999999
21
-1666.4
31
0
0
LINE
8
PARTS
10
5807.599999999999
20
-1666.4
30
0
11
5807.599999999999
21
-1166.4
31
0
0
LINE
8
PARTS
10
5807.599999999999
20
-1166.4
30
0
11
5707.599999999999
21
-1166.4
31
0
0
LINE
8
PARTS
10
5707.599999999999
20
-1166.4
30
0
11
5707.599999999999
21
-1666.4
31
0
0
TEXT
8
LABELS
10
5731.599999999999
20
-1214.4
30
0
40
20
1
drawer-side-34*
7
STANDARD
0
TEXT
8
LABELS
10
5731.599999999999
20
-1246.4
30
0
40
20
1
500x100
7
STANDARD
0
LINE
8
SHEETS
10
6200
20
-2070
30
0
11
9000
21
-2070
31
0
0
LINE
8
SHEETS
10
9000
20
-2070
30
0
11
9000
21
0
31
0
0
LINE
8
SHEETS
10
9000
20
0
30
0
11
6200
21
0
31
0
0
LINE
8
SHEETS
10
6200
20
0
30
0
11
6200
21
-2070
31
0
0
TEXT
8
LABELS
10
6200
20
60
30
0
40
90
1
SHEET 3  2800x2070
7
STANDARD
0
LINE
8
PARTS
10
6200
20
-600
30
0
11
7805
21
-600
31
0
0
LINE
8
PARTS
10
7805
20
-600
30
0
11
7805
21
0
31
0
0
LINE
8
PARTS
10
7805
20
0
30
0
11
6200
21
0
31
0
0
LINE
8
PARTS
10
6200
20
0
30
0
11
6200
21
-600
31
0
0
TEXT
8
LABELS
10
6224
20
-88
30
0
40
60
1
worktop-12
7
STANDARD
0
TEXT
8
LABELS
10
6224
20
-160
30
0
40
60
1
1605x600
7
STANDARD
0
LINE
8
PARTS
10
6200
20
-1163.2
30
0
11
7796
21
-1163.2
31
0
0
LINE
8
PARTS
10
7796
20
-1163.2
30
0
11
7796
21
-603.2
31
0
0
LINE
8
PARTS
10
7796
20
-603.2
30
0
11
6200
21
-603.2
31
0
0
LINE
8
PARTS
10
6200
20
-603.2
30
0
11
6200
21
-1163.2
31
0
0
TEXT
8
LABELS
10
6224
20
-691.2
30
0
40
60
1
plinth-4
7
STANDARD
0
TEXT
8
LABELS
10
6224
20
-763.2
30
0
40
60
1
1596x560
7
STANDARD
0
LINE
8
PARTS
10
6200
20
-1726.4
30
0
11
7789
21
-1726.4
31
0
0
LINE
8
PARTS
10
7789
20
-1726.4
30
0
11
7789
21
-1166.4
31
0
0
LINE
8
PARTS
10
7789
20
-1166.4
30
0
11
6200
21
-1166.4
31
0
0
LINE
8
PARTS
10
6200
20
-1166.4
30
0
11
6200
21
-1726.4
31
0
0
TEXT
8
LABELS
10
6224
20
-1254.4
30
0
40
60
1
bottom-2
7
STANDARD
0
TEXT
8
LABELS
10
6224
20
-1326.4
30
0
40
60
1
1589x560
7
STANDARD
0
LINE
8
PARTS
10
7808.2
20
-560
30
0
11
8510.2
21
-560
31
0
0
LINE
8
PARTS
10
8510.2
20
-560
30
0
11
8510.2
21
0
31
0
0
LINE
8
PARTS
10
8510.2
20
0
30
0
11
7808.2
21
0
31
0
0
LINE
8
PARTS
10
7808.2
20
0
30
0
11
7808.2
21
-560
31
0
0
TEXT
8
LABELS
10
7832.2
20
-88
30
0
40
60
1
side-8
7
STANDARD
0
TEXT
8
LABELS
10
7832.2
20
-160
30
0
40
60
1
702x560
7
STANDARD
0
LINE
8
PARTS
10
7799.2
20
-1163.2
30
0
11
8501.2
21
-1163.2
31
0
0
LINE
8
PARTS
10
8501.2
20
-1163.2
30
0
11
8501.2
21
-603.2
31
0
0
LINE
8
PARTS
10
8501.2
20
-603.2
30
0
11
7799.2
21
-603.2
31
0
0
LINE
8
PARTS
10
7799.2
20
-603.2
30
0
11
7799.2
21
-1163.2
31
0
0
TEXT
8
LABELS
10
7823.2
20
-691.2
30
0
40
60
1
side-9
7
STANDARD
0
TEXT
8
LABELS
10
7823.2
20
-763.2
30
0
40
60
1
702x560
7
STANDARD
0
LINE
8
PARTS
10
7799.2
20
-1726.4
30
0
11
8501.2
21
-1726.4
31
0
0
LINE
8
PARTS
10
8501.2
20
-1726.4
30
0
11
8501.2
21
-1166.4
31
0
0
LINE
8
PARTS
10
8501.2
20
-1166.4
30
0
11
7799.2
21
-1166.4
31
0
0
LINE
8
PARTS
10
7799.2
20
-1166.4
30
0
11
7799.2
21
-1726.4
31
0
0
TEXT
8
LABELS
10
7823.2
20
-1254.4
30
0
40
60
1
side-10
7
STANDARD
0
TEXT
8
LABELS
10
7823.2
20
-1326.4
30
0
40
60
1
702x560
7
STANDARD
0
LINE
8
PARTS
10
8504.4
20
-2063.4
30
0
11
8861.4
21
-2063.4
31
0
0
LINE
8
PARTS
10
8861.4
20
-2063.4
30
0
11
8861.4
21
-1166.4
31
0
0
LINE
8
PARTS
10
8861.4
20
-1166.4
30
0
11
8504.4
21
-1166.4
31
0
0
LINE
8
PARTS
10
8504.4
20
-1166.4
30
0
11
8504.4
21
-2063.4
31
0
0
TEXT
8
LABELS
10
8528.4
20
-1254.4
30
0
40
60
1
front-33
7
STANDARD
0
TEXT
8
LABELS
10
8528.4
20
-1326.4
30
0
40
60
1
357x897
7
STANDARD
0
LINE
8
PARTS
10
8513.4
20
-597
30
0
11
8870.4
21
-597
31
0
0
LINE
8
PARTS
10
8870.4
20
-597
30
0
11
8870.4
21
0
31
0
0
LINE
8
PARTS
10
8870.4
20
0
30
0
11
8513.4
21
0
31
0
0
LINE
8
PARTS
10
8513.4
20
0
30
0
11
8513.4
21
-597
31
0
0
TEXT
8
LABELS
10
8537.4
20
-88
30
0
40
60
1
front-9
7
STANDARD
0
TEXT
8
LABELS
10
8537.4
20
-160
30
0
40
60
1
357x597
7
STANDARD
0
LINE
8
PARTS
10
7799.2
20
-2026.6000000000001
30
0
11
8376.2
21
-2026.6000000000001
31
0
0
LINE
8
PARTS
10
8376.2
20
-2026.6000000000001
30
0
11
8376.2
21
-1729.6000000000001
31
0
0
LINE
8
PARTS
10
8376.2
20
-1729.6000000000001
30
0
11
7799.2
21
-1729.6000000000001
31
0
0
LINE
8
PARTS
10
7799.2
20
-1729.6000000000001
30
0
11
7799.2
21
-2026.6000000000001
31
0
0
TEXT
8
LABELS
10
7823.2
20
-1817.6000000000001
30
0
40
60
1
front-14
7
STANDARD
0
TEXT
8
LABELS
10
7823.2
20
-1889.6000000000001
30
0
40
60
1
577x297
7
STANDARD
0
LINE
8
PARTS
10
6200
20
-2026.6000000000001
30
0
11
6777
21
-2026.6000000000001
31
0
0
LINE
8
PARTS
10
6777
20
-2026.6000000000001
30
0
11
6777
21
-1729.6000000000001
31
0
0
LINE
8
PARTS
10
6777
20
-1729.6000000000001
30
0
11
6200
21
-1729.6000000000001
31
0
0
LINE
8
PARTS
10
6200
20
-1729.6000000000001
30
0
11
6200
21
-2026.6000000000001
31
0
0
TEXT
8
LABELS
10
6224
20
-1817.6000000000001
30
0
40
60
1
front-15
7
STANDARD
0
TEXT
8
LABELS
10
6224
20
-1889.6000000000001
30
0
40
60
1
577x297
7
STANDARD
0
LINE
8
PARTS
10
8864.599999999999
20
-2025.4
30
0
11
8964.599999999999
21
-2025.4
31
0
0
LINE
8
PARTS
10
8964.599999999999
20
-2025.4
30
0
11
8964.599999999999
21
-1166.4
31
0
0
LINE
8
PARTS
10
8964.599999999999
20
-1166.4
30
0
11
8864.599999999999
21
-1166.4
31
0
0
LINE
8
PARTS
10
8864.599999999999
20
-1166.4
30
0
11
8864.599999999999
21
-2025.4
31
0
0
TEXT
8
LABELS
10
8888.599999999999
20
-1214.4
30
0
40
20
1
drawer-back-36*
7
STANDARD
0
TEXT
8
LABELS
10
8888.599999999999
20
-1246.4
30
0
40
20
1
859x100
7
STANDARD
0
LINE
8
PARTS
10
6780.2
20
-1829.6000000000001
30
0
11
7639.2
21
-1829.6000000000001
31
0
0
LINE
8
PARTS
10
7639.2
20
-1829.6000000000001
30
0
11
7639.2
21
-1729.6000000000001
31
0
0
LINE
8
PARTS
10
7639.2
20
-1729.6000000000001
30
0
11
6780.2
21
-1729.6000000000001
31
0
0
LINE
8
PARTS
10
6780.2
20
-1729.6000000000001
30
0
11
6780.2
21
-1829.6000000000001
31
0
0
TEXT
8
LABELS
10
6804.2
20
-1777.6000000000001
30
0
40
20
1
drawer-back-41
7
STANDARD
0
TEXT
8
LABELS
10
6804.2
20
-1809.6000000000001
30
0
40
20
1
859x100
7
STANDARD
0
LINE
8
PARTS
10
8873.599999999999
20
-500
30
0
11
8973.599999999999
21
-500
31
0
0
LINE
8
PARTS
10
8973.599999999999
20
-500
30
0
11
8973.599999999999
21
0
31
0
0
LINE
8
PARTS
10
8973.599999999999
20
0
30
0
11
8873.599999999999
21
0
31
0
0
LINE
8
PARTS
10
8873.599999999999
20
0
30
0
11
8873.599999999999
21
-500
31
0
0
TEXT
8
LABELS
10
8897.599999999999
20
-48
30
0
40
20
1
drawer-side-35*
7
STANDARD
0
TEXT
8
LABELS
10
8897.599999999999
20
-80
30
0
40
20
1
500x100
7
STANDARD
0
LINE
8
PARTS
10
6780.2
20
-1932.8000000000002
30
0
11
7280.2
21
-1932.8000000000002
31
0
0
LINE
8
PARTS
10
7280.2
20
-1932.8000000000002
30
0
11
7280.2
21
-1832.8000000000002
31
0
0
LINE
8
PARTS
10
7280.2
20
-1832.8000000000002
30
0
11
6780.2
21
-1832.8000000000002
31
0
0
LINE
8
PARTS
10
6780.2
20
-1832.8000000000002
30
0
11
6780.2
21
-1932.8000000000002
31
0
0
TEXT
8
LABELS
10
6804.2
20
-1880.8000000000002
30
0
40
20
1
drawer-side-39
7
STANDARD
0
TEXT
8
LABELS
10
6804.2
20
-1912.8000000000002
30
0
40
20
1
500x100
7
STANDARD
0
LINE
8
PARTS
10
6780.2
20
-2036.0000000000002
30
0
11
7280.2
21
-2036.0000000000002
31
0
0
LINE
8
PARTS
10
7280.2
20
-2036.0000000000002
30
0
11
7280.2
21
-1936.0000000000002
31
0
0
LINE
8
PARTS
10
7280.2
20
-1936.0000000000002
30
0
11
6780.2
21
-1936.0000000000002
31
0
0
LINE
8
PARTS
10
6780.2
20
-1936.0000000000002
30
0
11
6780.2
21
-2036.0000000000002
31
0
0
TEXT
8
LABELS
10
6804.2
20
-1984.0000000000002
30
0
40
20
1
drawer-side-40
7
STANDARD
0
TEXT
8
LABELS
10
6804.2
20
-2016.0000000000002
30
0
40
20
1
500x100
7
STANDARD
0
LINE
8
PARTS
10
7283.4
20
-1932.8000000000002
30
0
11
7783.4
21
-1932.8000000000002
31
0
0
LINE
8
PARTS
10
7783.4
20
-1932.8000000000002
30
0
11
7783.4
21
-1832.8000000000002
31
0
0
LINE
8
PARTS
10
7783.4
20
-1832.8000000000002
30
0
11
7283.4
21
-1832.8000000000002
31
0
0
LINE
8
PARTS
10
7283.4
20
-1832.8000000000002
30
0
11
7283.4
21
-1932.8000000000002
31
0
0
TEXT
8
LABELS
10
7307.4
20
-1880.8000000000002
30
0
40
20
1
drawer-side-10
7
STANDARD
0
TEXT
8
LABELS
10
7307.4
20
-1912.8000000000002
30
0
40
20
1
500x100
7
STANDARD
0
LINE
8
PARTS
10
7283.4
20
-2036.0000000000002
30
0
11
7783.4
21
-2036.0000000000002
31
0
0
LINE
8
PARTS
10
7783.4
20
-2036.0000000000002
30
0
11
7783.4
21
-1936.0000000000002
31
0
0
LINE
8
PARTS
10
7783.4
20
-1936.0000000000002
30
0
11
7283.4
21
-1936.0000000000002
31
0
0
LINE
8
PARTS
10
7283.4
20
-1936.0000000000002
30
0
11
7283.4
21
-2036.0000000000002
31
0
0
TEXT
8
LABELS
10
7307.4
20
-1984.0000000000002
30
0
40
20
1
drawer-side-11
7
STANDARD
0
TEXT
8
LABELS
10
7307.4
20
-2016.0000000000002
30
0
40
20
1
500x100
7
STANDARD
0
LINE
8
PARTS
10
8504.4
20
-1103.2
30
0
11
8604.4
21
-1103.2
31
0
0
LINE
8
PARTS
10
8604.4
20
-1103.2
30
0
11
8604.4
21
-603.2
31
0
0
LINE
8
PARTS
10
8604.4
20
-603.2
30
0
11
8504.4
21
-603.2
31
0
0
LINE
8
PARTS
10
8504.4
20
-603.2
30
0
11
8504.4
21
-1103.2
31
0
0
TEXT
8
LABELS
10
8528.4
20
-651.2
30
0
40
20
1
drawer-side-15*
7
STANDARD
0
TEXT
8
LABELS
10
8528.4
20
-683.2
30
0
40
20
1
500x100
7
STANDARD
0
LINE
8
PARTS
10
8607.599999999999
20
-1103.2
30
0
11
8707.599999999999
21
-1103.2
31
0
0
LINE
8
PARTS
10
8707.599999999999
20
-1103.2
30
0
11
8707.599999999999
21
-603.2
31
0
0
LINE
8
PARTS
10
8707.599999999999
20
-603.2
30
0
11
8607.599999999999
21
-603.2
31
0
0
LINE
8
PARTS
10
8607.599999999999
20
-603.2
30
0
11
8607.599999999999
21
-1103.2
31
0
0
TEXT
8
LABELS
10
8631.599999999999
20
-651.2
30
0
40
20
1
drawer-side-16*
7
STANDARD
0
TEXT
8
LABELS
10
8631.599999999999
20
-683.2
30
0
40
20
1
500x100
7
STANDARD
0
LINE
8
SHEETS
10
9300
20
-2070
30
0
11
12100
21
-2070
31
0
0
LINE
8
SHEETS
10
12100
20
-2070
30
0
11
12100
21
0
31
0
0
LINE
8
SHEETS
10
12100
20
0
30
0
11
9300
21
0
31
0
0
LINE
8
SHEETS
10
9300
20
0
30
0
11
9300
21
-2070
31
0
0
TEXT
8
LABELS
10
9300
20
60
30
0
40
90
1
SHEET 4  2800x2070
7
STANDARD
0
LINE
8
PARTS
10
9300
20
-560
30
0
11
10002
21
-560
31
0
0
LINE
8
PARTS
10
10002
20
-560
30
0
11
10002
21
0
31
0
0
LINE
8
PARTS
10
10002
20
0
30
0
11
9300
21
0
31
0
0
LINE
8
PARTS
10
9300
20
0
30
0
11
9300
21
-560
31
0
0
TEXT
8
LABELS
10
9324
20
-88
30
0
40
60
1
side-5
7
STANDARD
0
TEXT
8
LABELS
10
9324
20
-160
30
0
40
60
1
702x560
7
STANDARD
0
LINE
8
PARTS
10
9300
20
-1123.2
30
0
11
10002
21
-1123.2
31
0
0
LINE
8
PARTS
10
10002
20
-1123.2
30
0
11
10002
21
-563.2
31
0
0
LINE
8
PARTS
10
10002
20
-563.2
30
0
11
9300
21
-563.2
31
0
0
LINE
8
PARTS
10
9300
20
-563.2
30
0
11
9300
21
-1123.2
31
0
0
TEXT
8
LABELS
10
9324
20
-651.2
30
0
40
60
1
side-6
7
STANDARD
0
TEXT
8
LABELS
10
9324
20
-723.2
30
0
40
60
1
702x560
7
STANDARD
0
LINE
8
PARTS
10
9300
20
-1726.4
30
0
11
9905
21
-1726.4
31
0
0
LINE
8
PARTS
10
9905
20
-1726.4
30
0
11
9905
21
-1126.4
31
0
0
LINE
8
PARTS
10
9905
20
-1126.4
30
0
11
9300
21
-1126.4
31
0
0
LINE
8
PARTS
10
9300
20
-1126.4
30
0
11
9300
21
-1726.4
31
0
0
TEXT
8
LABELS
10
9324
20
-1214.4
30
0
40
60
1
worktop-8
7
STANDARD
0
TEXT
8
LABELS
10
9324
20
-1286.4
30
0
40
60
1
605x600
7
STANDARD
0
LINE
8
PARTS
10
10005.2
20
-897
30
0
11
10362.2
21
-897
31
0
0
LINE
8
PARTS
10
10362.2
20
-897
30
0
11
10362.2
21
0
31
0
0
LINE
8
PARTS
10
10362.2
20
0
30
0
11
10005.2
21
0
31
0
0
LINE
8
PARTS
10
10005.2
20
0
30
0
11
10005.2
21
-897
31
0
0
TEXT
8
LABELS
10
10029.2
20
-88
30
0
40
60
1
front-38
7
STANDARD
0
TEXT
8
LABELS
10
10029.2
20
-160
30
0
40
60
1
357x897
7
STANDARD
0
LINE
8
PARTS
10
10005.2
20
-1497.2
30
0
11
10362.2
21
-1497.2
31
0
0
LINE
8
PARTS
10
10362.2
20
-1497.2
30
0
11
10362.2
21
-900.2
31
0
0
LINE
8
PARTS
10
10362.2
20
-900.2
30
0
11
10005.2
21
-900.2
31
0
0
LINE
8
PARTS
10
10005.2
20
-900.2
30
0
11
10005.2
21
-1497.2
31
0
0
TEXT
8
LABELS
10
10029.2
20
-988.2
30
0
40
60
1
front-14
7
STANDARD
0
TEXT
8
LABELS
10
10029.2
20
-1060.2
30
0
40
60
1
357x597
7
STANDARD
0
LINE
8
SHEETS
10
12400
20
-2070
30
0
11
15200
21
-2070
31
0
0
LINE
8
SHEETS
10
15200
20
-2070
30
0
11
15200
21
0
31
0
0
LINE
8
SHEETS
10
15200
20
0
30
0
11
12400
21
0
31
0
0
LINE
8
SHEETS
10
12400
20
0
30
0
11
12400
21
-2070
31
0
0
TEXT
8
LABELS
10
12400
20
60
30
0
40
90
1
SHEET 5  2800x2070
7
STANDARD
0
LINE
8
PARTS
10
12400
20
-900
30
0
11
13120
21
-900
31
0
0
LINE
8
PARTS
10
13120
20
-900
30
0
11
13120
21
0
31
0
0
LINE
8
PARTS
10
13120
20
0
30
0
11
12400
21
0
31
0
0
LINE
8
PARTS
10
12400
20
0
30
0
11
12400
21
-900
31
0
0
TEXT
8
LABELS
10
12424
20
-88
30
0
40
60
1
back-43
7
STANDARD
0
TEXT
8
LABELS
10
12424
20
-160
30
0
40
60
1
720x900
7
STANDARD
0
LINE
8
PARTS
10
12400
20
-1703.2
30
0
11
13120
21
-1703.2
31
0
0
LINE
8
PARTS
10
13120
20
-1703.2
30
0
11
13120
21
-903.2
31
0
0
LINE
8
PARTS
10
13120
20
-903.2
30
0
11
12400
21
-903.2
31
0
0
LINE
8
PARTS
10
12400
20
-903.2
30
0
11
12400
21
-1703.2
31
0
0
TEXT
8
LABELS
10
12424
20
-991.2
30
0
40
60
1
back-32
7
STANDARD
0
TEXT
8
LABELS
10
12424
20
-1063.2
30
0
40
60
1
720x800
7
STANDARD
0
LINE
8
PARTS
10
13123.2
20
-700
30
0
11
13843.2
21
-700
31
0
0
LINE
8
PARTS
10
13843.2
20
-700
30
0
11
13843.2
21
0
31
0
0
LINE
8
PARTS
10
13843.2
20
0
30
0
11
13123.2
21
0
31
0
0
LINE
8
PARTS
10
13123.2
20
0
30
0
11
13123.2
21
-700
31
0
0
TEXT
8
LABELS
10
13147.2
20
-88
30
0
40
60
1
back-45
7
STANDARD
0
TEXT
8
LABELS
10
13147.2
20
-160
30
0
40
60
1
720x700
7
STANDARD
0
LINE
8
PARTS
10
13846.4
20
-600
30
0
11
14566.4
21
-600
31
0
0
LINE
8
PARTS
10
14566.4
20
-600
30
0
11
14566.4
21
0
31
0
0
LINE
8
PARTS
10
14566.4
20
0
30
0
11
13846.4
21
0
31
0
0
LINE
8
PARTS
10
13846.4
20
0
30
0
11
13846.4
21
-600
31
0
0
TEXT
8
LABELS
10
13870.4
20
-88
30
0
40
60
1
back-16
7
STANDARD
0
TEXT
8
LABELS
10
13870.4
20
-160
30
0
40
60
1
720x600
7
STANDARD
0
LINE
8
PARTS
10
13123.2
20
-1303.2
30
0
11
13843.2
21
-1303.2
31
0
0
LINE
8
PARTS
10
13843.2
20
-1303.2
30
0
11
13843.2
21
-703.2
31
0
0
LINE
8
PARTS
10
13843.2
20
-703.2
30
0
11
13123.2
21
-703.2
31
0
0
LINE
8
PARTS
10
13123.2
20
-703.2
30
0
11
13123.2
21
-1303.2
31
0
0
TEXT
8
LABELS
10
13147.2
20
-791.2
30
0
40
60
1
back-19
7
STANDARD
0
TEXT
8
LABELS
10
13147.2
20
-863.2
30
0
40
60
1
720x600
7
STANDARD
0
LINE
8
PARTS
10
13123.2
20
-1906.4
30
0
11
13843.2
21
-1906.4
31
0
0
LINE
8
PARTS
10
13843.2
20
-1906.4
30
0
11
13843.2
21
-1306.4
31
0
0
LINE
8
PARTS
10
13843.2
20
-1306.4
30
0
11
13123.2
21
-1306.4
31
0
0
LINE
8
PARTS
10
13123.2
20
-1306.4
30
0
11
13123.2
21
-1906.4
31
0
0
TEXT
8
LABELS
10
13147.2
20
-1394.4
30
0
40
60
1
back-22
7
STANDARD
0
TEXT
8
LABELS
10
13147.2
20
-1466.4
30
0
40
60
1
720x600
7
STANDARD
0
LINE
8
PARTS
10
13846.4
20
-1546.2
30
0
11
14346.4
21
-1546.2
31
0
0
LINE
8
PARTS
10
14346.4
20
-1546.2
30
0
11
14346.4
21
-703.2
31
0
0
LINE
8
PARTS
10
14346.4
20
-703.2
30
0
11
13846.4
21
-703.2
31
0
0
LINE
8
PARTS
10
13846.4
20
-703.2
30
0
11
13846.4
21
-1546.2
31
0
0
TEXT
8
LABELS
10
13870.4
20
-777.5709677419355
30
0
40
46.37096774193549
1
drawer-bottom-37
7
STANDARD
0
TEXT
8
LABELS
10
13870.4
20
-835.941935483871
30
0
40
46.37096774193549
1
500x843
7
STANDARD
0
LINE
8
PARTS
10
14349.6
20
-1546.2
30
0
11
14849.6
21
-1546.2
31
0
0
LINE
8
PARTS
10
14849.6
20
-1546.2
30
0
11
14849.6
21
-703.2
31
0
0
LINE
8
PARTS
10
14849.6
20
-703.2
30
0
11
14349.6
21
-703.2
31
0
0
LINE
8
PARTS
10
14349.6
20
-703.2
30
0
11
14349.6
21
-1546.2
31
0
0
TEXT
8
LABELS
10
14373.6
20
-777.5709677419355
30
0
40
46.37096774193549
1
drawer-bottom-42
7
STANDARD
0
TEXT
8
LABELS
10
14373.6
20
-835.941935483871
30
0
40
46.37096774193549
1
500x843
7
STANDARD
0
LINE
8
PARTS
10
14349.6
20
-2049.4
30
0
11
15092.6
21
-2049.4
31
0
0
LINE
8
PARTS
10
15092.6
20
-2049.4
30
0
11
15092.6
21
-1549.4
31
0
0
LINE
8
PARTS
10
15092.6
20
-1549.4
30
0
11
14349.6
21
-1549.4
31
0
0
LINE
8
PARTS
10
14349.6
20
-1549.4
30
0
11
14349.6
21
-2049.4
31
0
0
TEXT
8
LABELS
10
14373.6
20
-1637.4
30
0
40
60
1
drawer-bottom-21*
7
STANDARD
0
TEXT
8
LABELS
10
14373.6
20
-1709.4
30
0
40
60
1
500x743
7
STANDARD
0
LINE
8
PARTS
10
14569.6
20
-543
30
0
11
15069.6
21
-543
31
0
0
LINE
8
PARTS
10
15069.6
20
-543
30
0
11
15069.6
21
0
31
0
0
LINE
8
PARTS
10
15069.6
20
0
30
0
11
14569.6
21
0
31
0
0
LINE
8
PARTS
10
14569.6
20
0
30
0
11
14569.6
21
-543
31
0
0
TEXT
8
LABELS
10
14593.6
20
-74.37096774193549
30
0
40
46.37096774193549
1
drawer-bottom-13
7
STANDARD
0
TEXT
8
LABELS
10
14593.6
20
-132.74193548387098
30
0
40
46.37096774193549
1
500x543
7
STANDARD
0
LINE
8
SHEETS
10
15500
20
-2070
30
0
11
18300
21
-2070
31
0
0
LINE
8
SHEETS
10
18300
20
-2070
30
0
11
18300
21
0
31
0
0
LINE
8
SHEETS
10
18300
20
0
30
0
11
15500
21
0
31
0
0
LINE
8
SHEETS
10
15500
20
0
30
0
11
15500
21
-2070
31
0
0
TEXT
8
LABELS
10
15500
20
60
30
0
40
90
1
SHEET 6  2800x2070
7
STANDARD
0
LINE
8
PARTS
10
15500
20
-743
30
0
11
16000
21
-743
31
0
0
LINE
8
PARTS
10
16000
20
-743
30
0
11
16000
21
0
31
0
0
LINE
8
PARTS
10
16000
20
0
30
0
11
15500
21
0
31
0
0
LINE
8
PARTS
10
15500
20
0
30
0
11
15500
21
-743
31
0
0
TEXT
8
LABELS
10
15524
20
-74.37096774193549
30
0
40
46.37096774193549
1
drawer-bottom-26
7
STANDARD
0
TEXT
8
LABELS
10
15524
20
-132.74193548387098
30
0
40
46.37096774193549
1
500x743
7
STANDARD
0
LINE
8
PARTS
10
15500
20
-1489.2
30
0
11
16000
21
-1489.2
31
0
0
LINE
8
PARTS
10
16000
20
-1489.2
30
0
11
16000
21
-746.2
31
0
0
LINE
8
PARTS
10
16000
20
-746.2
30
0
11
15500
21
-746.2
31
0
0
LINE
8
PARTS
10
15500
20
-746.2
30
0
11
15500
21
-1489.2
31
0
0
TEXT
8
LABELS
10
15524
20
-820.5709677419355
30
0
40
46.37096774193549
1
drawer-bottom-31
7
STANDARD
0
TEXT
8
LABELS
10
15524
20
-878.941935483871
30
0
40
46.37096774193549
1
500x743
7
STANDARD
0
LINE
8
PARTS
10
15500
20
-2035.4
30
0
11
16000
21
-2035.4
31
0
0
LINE
8
PARTS
10
16000
20
-2035.4
30
0
11
16000
21
-1492.4
31
0
0
LINE
8
PARTS
10
16000
20
-1492.4
30
0
11
15500
21
-1492.4
31
0
0
LINE
8
PARTS
10
15500
20
-1492.4
30
0
11
15500
21
-2035.4
31
0
0
TEXT
8
LABELS
10
15524
20
-1566.7709677419357
30
0
40
46.37096774193549
1
drawer-bottom-18
7
STANDARD
0
TEXT
8
LABELS
10
15524
20
-1625.141935483871
30
0
40
46.37096774193549
1
500x543
7
STANDARD
0
ENDSEC
0
EOF