<?xml version="1.0" encoding="UTF-8"?>
<svg id="Layer_2" data-name="Layer 2" xmlns="http://www.w3.org/2000/svg" viewBox="0 0 94.14 17.06">
  <defs>
    <style>
      .cls-1 {
        fill: #00ac7a;
      }
    </style>
  </defs>
  <g id="Layer_1-2" data-name="Layer 1">
    <g>
      <path class="cls-1" d="M18.26,8.38c0,5.84-2.89,8.67-9.13,8.67S0,14.25,0,8.38h5.08c0,1,.02,4.34.02,4.34h8.22V4h-5.64V0h10.58v8.38Z"/>
      <path class="cls-1" d="M23.85,0v3.37h-4.8V0h4.8ZM23.85,4.21v12.63h-4.8V4.21h4.8Z"/>
      <path class="cls-1" d="M41.01,9.45v7.39h-4.8v-5.33c0-2.17-.74-3.1-2.9-3.1-1.42,0-2.92.65-3.86,1.6v6.82h-4.8V0h4.8v5.9c1.44-1.05,3.28-1.9,5.8-1.9,2.7,0,5.76.88,5.76,5.45Z"/>
      <path class="cls-1" d="M41.4,10.53c0-4.67,3.06-6.53,8.16-6.53s8.16,1.85,8.16,6.53-3.06,6.53-8.16,6.53-8.16-1.85-8.16-6.53ZM52.92,10.53c0-1.85-1.22-2.32-3.36-2.32s-3.36.46-3.36,2.32,1.22,2.32,3.36,2.32,3.36-.46,3.36-2.32Z"/>
      <path class="cls-1" d="M71.99,8.42l-6.88,4.21h6.88v4.21h-13.88v-4.21l6.88-4.21h-6.88v-4.21h13.88v4.21Z"/>
      <path class="cls-1" d="M77.58,0v16.85h-4.8V0h4.8Z"/>
      <path class="cls-1" d="M94.14,10.59v6.25h-4.8v-1.54c-1.86,1.43-3.94,1.75-6.02,1.75-2.74,0-5.14-1.03-5.14-3.77,0-3.29,3.6-4.15,7.1-4.15,1.68,0,2.96.23,4.06.65,0-1.52-1.52-1.58-3.12-1.58s-3.3.15-5.5.65l-1.56-3.58c2.4-.82,5-1.28,7.22-1.28,4.92,0,7.72,1.77,7.76,6.59ZM89.34,12.19c-.76-.21-1.8-.32-3.18-.32-2.22,0-3.18.21-3.18,1.01,0,.7.56.8,1.78.8,1.62,0,3.38-.42,4.58-.97v-.53Z"/>
      <rect class="cls-1" x="11.38" y="6.28" width=".75" height="4.12"/>
    </g>
  </g>
</svg>
